<?xml version="1.0" standalone="no"?>
<!DOCTYPE svg PUBLIC "-//W3C//DTD SVG 20010904//EN"
 "http://www.w3.org/TR/2001/REC-SVG-20010904/DTD/svg10.dtd">
<svg version="1.0" xmlns="http://www.w3.org/2000/svg"
 width="3000.000000pt" height="3000.000000pt" viewBox="0 0 3000.000000 3000.000000"
 preserveAspectRatio="xMidYMid meet">
<metadata>
Created by potrace 1.14, written by Peter Selinger 2001-2017
</metadata>
<g transform="translate(0.000000,3000.000000) scale(0.100000,-0.100000)"
fill="#000000" stroke="none">
<path d="M14357 28978 c2 -35 3 -69 3 -75 -1 -18 0 -60 0 -75 1 -7 -1 -39 -3
-70 -2 -32 1 -58 5 -58 5 0 6 -6 2 -12 -12 -19 -11 -112 1 -120 6 -5 6 -8 0
-8 -6 0 -10 -106 -9 -300 0 -164 -2 -304 -5 -309 -5 -8 -65 -13 -276 -25 -16
-1 -36 -5 -42 -9 -8 -5 -13 -3 -13 3 0 6 -4 9 -8 6 -5 -3 -42 -8 -83 -11 -121
-9 -192 -15 -229 -20 -19 -3 -62 -7 -95 -11 -69 -7 -117 -13 -160 -18 -16 -2
-57 -7 -91 -10 -33 -4 -72 -9 -85 -12 -13 -2 -46 -7 -74 -10 -77 -9 -132 -17
-195 -28 -32 -6 -107 -17 -135 -21 -16 -2 -30 -4 -30 -5 0 -2 -25 -7 -72 -14
-21 -3 -51 -8 -68 -11 -16 -3 -66 -12 -110 -21 -44 -8 -96 -17 -115 -20 -19
-3 -42 -7 -50 -10 -8 -3 -28 -8 -45 -11 -31 -5 -206 -41 -237 -49 -10 -2 -26
-6 -35 -9 -45 -11 -150 -37 -169 -41 -11 -2 -72 -17 -135 -34 -63 -17 -123
-33 -134 -35 -17 -4 -59 -14 -87 -21 -5 -1 -10 -3 -13 -4 -6 -3 -9 -4 -50 -14
-16 -5 -61 -17 -100 -28 -38 -11 -74 -21 -80 -23 -37 -7 -103 -27 -115 -34 -9
-5 -31 -12 -50 -16 -19 -4 -39 -10 -45 -13 -5 -4 -17 -7 -25 -9 -8 -1 -69 -21
-135 -43 -66 -23 -127 -43 -135 -45 -14 -4 -198 -69 -285 -101 -22 -9 -56 -20
-75 -26 -19 -5 -39 -14 -45 -18 -5 -4 -28 -13 -50 -20 -22 -7 -46 -17 -52 -23
-7 -5 -13 -7 -13 -4 0 3 -60 -19 -132 -49 -73 -29 -139 -54 -145 -54 -7 0 -13
-4 -13 -9 0 -5 -14 -12 -31 -16 -17 -4 -42 -13 -57 -21 -15 -8 -33 -14 -39
-14 -7 0 -13 -4 -13 -8 0 -5 -6 -9 -12 -9 -7 0 -38 -11 -68 -25 -30 -14 -77
-35 -105 -48 -63 -28 -172 -79 -272 -127 -43 -20 -80 -38 -83 -38 -13 -4 -401
-202 -470 -240 -19 -11 -38 -24 -41 -28 -3 -5 -9 -8 -13 -8 -8 2 -104 -48
-181 -94 -33 -20 -72 -40 -87 -46 -16 -6 -28 -14 -28 -19 0 -4 -8 -10 -17 -14
-10 -3 -31 -14 -48 -23 -16 -10 -52 -32 -80 -48 -27 -16 -53 -33 -56 -38 -3
-5 -9 -8 -13 -7 -4 1 -29 -11 -54 -27 -241 -152 -323 -205 -497 -321 -110 -74
-201 -138 -203 -143 -2 -5 -10 -9 -18 -9 -8 0 -17 -7 -20 -15 -4 -8 -11 -15
-18 -15 -6 0 -23 -11 -38 -25 -15 -14 -30 -25 -33 -25 -6 0 -23 -13 -56 -42
-10 -10 -19 -16 -19 -13 0 4 -142 -99 -190 -138 -8 -7 -53 -41 -100 -76 -47
-36 -93 -73 -103 -83 -10 -10 -21 -18 -25 -18 -4 0 -23 -15 -42 -33 -20 -17
-56 -48 -80 -67 -25 -19 -47 -37 -50 -40 -3 -3 -30 -25 -60 -50 -30 -24 -64
-52 -75 -62 -11 -10 -31 -27 -45 -39 -39 -32 -118 -101 -156 -136 -18 -17 -34
-30 -34 -29 0 1 -24 -20 -54 -48 -29 -28 -98 -91 -152 -141 -105 -95 -482
-468 -577 -571 -31 -33 -51 -61 -44 -61 26 -1 227 -64 312 -98 100 -40 268
-125 273 -137 2 -4 7 -8 12 -8 8 0 109 -59 120 -70 3 -3 28 -20 55 -39 131
-90 304 -248 409 -374 54 -65 148 -191 173 -232 61 -101 103 -176 103 -182 0
-5 8 -18 18 -31 l18 -23 150 148 c190 188 358 345 494 462 41 36 80 70 85 76
9 9 103 89 148 125 10 8 28 23 40 33 12 10 37 31 56 45 19 15 41 35 50 45 8 9
21 17 28 17 7 0 13 4 13 8 0 5 21 24 48 42 26 19 49 37 52 40 3 3 25 21 50 40
25 19 48 39 52 45 4 5 8 7 8 3 0 -5 9 0 19 10 35 31 50 42 58 42 5 0 15 9 23
20 8 11 19 20 24 20 5 0 27 15 50 33 103 82 516 362 516 350 0 -5 4 -3 8 3 8
13 179 124 191 124 4 0 16 9 26 20 10 11 22 20 27 20 5 0 25 11 46 24 33 21
183 108 270 158 19 10 73 39 120 65 48 25 93 50 100 56 6 5 12 6 12 1 0 -5 4
-4 8 1 4 6 34 24 67 40 33 17 62 33 63 38 2 4 10 7 18 7 16 0 56 20 65 33 3 5
9 8 13 7 4 0 42 17 85 39 43 22 81 37 85 34 3 -4 6 -1 6 5 0 6 10 14 23 18 12
4 60 25 107 46 87 41 149 69 210 95 19 9 53 24 75 33 22 10 76 33 120 50 44
18 98 40 120 50 43 19 185 73 198 76 4 1 9 3 12 4 3 1 8 3 13 5 4 1 14 5 22 8
8 3 60 23 115 42 55 20 114 42 130 48 17 7 32 12 35 13 3 0 12 3 20 7 36 14
332 107 348 110 9 1 22 5 27 9 9 5 69 20 80 19 2 0 20 6 40 15 19 8 37 14 40
14 3 0 6 0 8 1 1 0 9 2 17 4 8 1 47 12 85 23 85 26 402 104 430 107 11 1 27 5
35 8 13 5 80 20 135 32 11 2 52 10 90 18 39 9 84 18 100 21 17 2 71 12 120 21
50 9 104 18 120 20 17 2 30 4 30 5 0 3 26 7 82 14 28 3 57 8 65 10 7 3 33 8
58 11 25 3 59 8 75 11 17 2 46 6 65 9 19 2 49 6 65 9 17 3 55 8 85 11 30 3 71
7 90 10 19 3 60 7 90 10 78 7 168 15 215 20 22 3 78 7 125 10 47 3 105 8 130
10 409 34 1195 25 1695 -19 33 -3 87 -8 120 -11 34 -3 71 -7 84 -10 13 -2 51
-7 85 -10 85 -8 126 -13 161 -19 17 -3 62 -8 100 -12 39 -3 74 -9 79 -12 5 -3
23 -6 40 -8 17 -2 45 -5 61 -8 66 -11 101 -16 130 -20 17 -3 66 -12 110 -20
44 -8 96 -18 115 -21 19 -3 42 -8 50 -10 8 -2 31 -7 50 -10 19 -3 43 -8 52
-11 9 -3 25 -7 36 -9 37 -7 338 -74 357 -79 6 -2 24 -6 40 -10 17 -4 48 -12
69 -17 22 -6 46 -12 55 -14 73 -17 346 -92 371 -102 8 -3 22 -8 30 -10 8 -2
22 -5 30 -8 8 -2 16 -4 18 -5 1 -2 5 -3 10 -4 42 -10 220 -71 230 -78 6 -6 12
-8 12 -5 0 5 58 -12 100 -30 8 -3 22 -7 31 -9 40 -8 405 -148 411 -158 4 -6 8
-8 8 -4 0 6 115 -36 185 -67 17 -7 75 -32 130 -56 55 -23 132 -56 170 -74 39
-18 102 -47 140 -65 162 -74 360 -174 363 -182 2 -4 10 -8 17 -8 7 0 46 -18
86 -40 41 -23 90 -49 109 -58 19 -9 37 -20 38 -24 2 -5 7 -8 12 -8 8 0 168
-89 265 -147 22 -13 48 -26 58 -30 9 -3 17 -9 17 -14 0 -5 4 -9 10 -9 11 0
210 -119 228 -137 7 -7 20 -13 28 -13 8 0 17 -7 20 -15 4 -8 10 -13 14 -10 4
3 13 -2 20 -10 7 -8 18 -15 25 -15 8 0 15 -3 17 -8 2 -4 50 -38 108 -76 58
-38 110 -76 117 -83 6 -8 14 -14 18 -13 4 1 30 -15 60 -36 29 -22 63 -46 75
-54 12 -8 28 -21 36 -27 7 -7 16 -13 19 -13 4 0 32 -19 63 -43 32 -24 111 -83
177 -133 111 -83 150 -113 179 -139 6 -6 31 -26 56 -45 42 -32 209 -169 220
-180 3 -3 34 -30 70 -60 36 -30 70 -59 76 -65 6 -5 42 -37 79 -70 37 -33 82
-73 99 -88 338 -311 567 -545 882 -903 117 -133 128 -145 204 -239 35 -44 67
-82 70 -85 3 -3 30 -36 60 -75 30 -38 57 -72 60 -75 4 -3 26 -32 51 -65 24
-33 50 -66 57 -73 6 -7 12 -16 12 -20 0 -4 13 -21 28 -39 33 -38 54 -65 67
-85 23 -36 161 -231 173 -243 6 -8 12 -16 12 -19 0 -3 33 -54 74 -113 40 -60
97 -146 126 -193 29 -47 57 -86 61 -88 5 -2 9 -9 9 -15 0 -7 19 -41 43 -77 23
-36 51 -82 62 -103 11 -20 23 -37 27 -37 5 0 8 -4 8 -9 0 -5 33 -67 73 -138
88 -153 137 -243 229 -423 39 -74 73 -139 76 -145 4 -5 7 -12 7 -15 1 -3 27
-59 59 -125 32 -66 66 -138 76 -160 61 -132 90 -197 90 -201 0 -3 12 -31 26
-62 36 -80 39 -87 75 -177 17 -44 39 -98 49 -120 9 -22 23 -58 30 -80 7 -22
17 -46 23 -52 5 -7 6 -13 2 -13 -4 0 -3 -6 2 -12 6 -7 13 -22 16 -33 3 -11 19
-58 37 -105 17 -47 33 -89 34 -95 2 -5 6 -17 9 -25 3 -8 15 -44 27 -80 12 -36
25 -74 29 -85 9 -23 64 -195 67 -210 1 -5 15 -55 32 -110 43 -139 131 -464
137 -505 0 -3 4 -11 8 -17 5 -7 6 -13 3 -13 -2 0 0 -15 5 -32 5 -18 12 -46 14
-63 3 -16 10 -43 15 -60 5 -16 11 -46 14 -66 3 -20 8 -42 10 -50 3 -8 8 -27
12 -44 17 -83 24 -123 29 -155 3 -19 8 -43 11 -52 8 -25 21 -99 39 -218 2 -14
9 -52 15 -85 6 -33 13 -78 16 -100 2 -22 8 -67 14 -100 13 -83 20 -132 26
-190 3 -27 8 -61 10 -75 3 -14 6 -32 6 -40 0 -8 4 -51 9 -95 9 -81 22 -225 23
-257 0 -10 3 -18 6 -18 3 0 5 -24 6 -53 0 -28 3 -87 6 -129 l7 -78 -37 -1
c-220 -3 -2565 0 -2568 4 -3 2 -7 36 -9 73 -7 103 -16 200 -31 309 -3 22 -7
56 -9 75 -6 54 -15 120 -25 175 -5 28 -11 68 -14 90 -3 22 -8 58 -12 80 -4 22
-7 49 -8 60 -1 11 -4 22 -7 25 -4 3 -9 28 -13 55 -3 28 -10 70 -16 95 -7 25
-16 68 -21 95 -15 81 -17 91 -69 295 -28 107 -52 204 -55 214 -2 11 -11 40
-19 65 -7 25 -24 80 -36 121 -12 41 -32 105 -45 142 -13 36 -21 69 -17 72 3 3
-1 6 -8 6 -7 0 -11 2 -8 5 3 3 -8 43 -24 88 -16 45 -31 87 -32 92 -1 6 -10 27
-19 49 -9 21 -17 42 -17 47 0 7 -14 43 -42 104 -5 12 -10 27 -12 35 -4 20 -33
89 -52 122 -8 15 -14 29 -14 30 2 5 -20 59 -50 126 -17 35 -30 65 -30 67 0 2
-20 46 -45 98 -25 52 -45 98 -45 102 0 4 -9 19 -19 33 -10 15 -19 30 -20 35
-1 12 -87 178 -161 312 -15 28 -40 75 -56 105 -16 30 -35 61 -41 68 -7 7 -13
19 -13 27 0 7 -3 15 -7 17 -11 4 -83 124 -83 137 0 22 -15 10 -29 -21 -25 -59
-151 -260 -212 -340 -32 -42 -59 -82 -59 -88 0 -6 -4 -8 -10 -5 -5 3 -10 2
-10 -4 0 -17 -250 -263 -315 -311 -33 -24 -62 -46 -65 -49 -3 -3 -27 -22 -55
-40 -27 -19 -52 -38 -55 -41 -3 -3 -16 -11 -30 -18 -14 -7 -56 -31 -95 -53
-77 -43 -179 -92 -240 -116 -22 -8 -53 -21 -70 -28 -76 -31 -223 -75 -262 -77
-20 -2 -16 -16 24 -87 49 -88 170 -328 211 -421 19 -41 41 -91 50 -110 26 -59
142 -353 142 -362 0 -5 7 -25 16 -46 10 -20 18 -42 19 -48 2 -6 17 -54 33
-105 17 -52 40 -123 51 -159 19 -64 86 -316 95 -362 3 -13 14 -63 24 -113 11
-49 23 -106 26 -125 5 -33 9 -53 21 -110 3 -14 7 -43 11 -65 3 -22 7 -47 9
-55 2 -8 7 -42 11 -75 3 -33 8 -69 11 -80 2 -11 6 -38 8 -60 12 -113 17 -150
21 -156 2 -4 -1 -11 -6 -14 -6 -4 -545 -7 -1198 -7 l-1187 0 -17 84 c-18 84
-23 109 -32 163 -3 17 -19 82 -36 145 -17 63 -33 122 -35 130 -2 8 -4 17 -5
20 -1 3 -3 10 -4 15 -1 6 -5 17 -8 25 -4 8 -16 47 -29 85 -12 39 -24 75 -28
80 -3 6 -6 12 -6 15 -1 10 -28 85 -34 95 -3 6 -6 15 -7 20 -10 51 -169 384
-253 529 -28 49 -51 93 -51 97 0 5 -4 9 -10 9 -5 0 -10 5 -10 11 0 5 -18 37
-40 69 -22 32 -40 61 -40 64 0 6 -24 37 -47 61 -7 8 -13 16 -13 20 0 6 -40 65
-50 75 -3 3 -17 21 -30 40 -13 19 -30 41 -37 48 -7 8 -26 30 -41 50 -15 21
-31 42 -37 48 -5 6 -30 36 -55 65 -101 121 -286 305 -445 445 -147 128 -530
404 -561 404 -7 0 -14 4 -16 8 -8 19 -415 230 -513 265 -52 19 -234 87 -260
98 -31 12 -134 45 -195 62 -30 8 -75 21 -100 28 -25 7 -52 14 -60 15 -8 1 -44
10 -79 19 -35 9 -72 15 -82 12 -11 -3 -17 -1 -13 4 3 5 -5 9 -18 10 -13 0 -30
2 -38 4 -8 2 -28 7 -45 10 -16 3 -41 8 -55 11 l-26 5 0 1182 c0 1049 2 1183
15 1193 9 7 24 10 34 8 11 -2 45 -6 76 -9 31 -4 67 -8 81 -11 14 -2 50 -6 80
-10 30 -3 65 -7 78 -10 12 -2 32 -6 45 -8 12 -3 40 -7 62 -10 33 -4 129 -23
265 -52 85 -18 246 -56 310 -74 41 -12 98 -27 125 -35 164 -44 525 -169 668
-231 171 -74 233 -103 362 -165 76 -37 142 -66 146 -63 4 2 15 39 24 81 23
105 85 293 124 375 17 37 31 71 31 75 0 5 11 25 25 46 14 20 23 37 20 37 -3 0
10 25 30 55 19 31 35 58 35 61 0 6 49 78 88 129 12 17 26 35 30 40 30 41 82
106 107 134 57 66 185 193 185 185 0 -5 7 1 15 13 18 25 174 150 230 183 22
13 42 27 45 30 3 4 39 26 80 50 41 24 77 46 80 48 6 4 -8 13 -129 80 -111 60
-500 254 -517 256 -7 1 -19 8 -28 15 -9 7 -16 11 -16 8 0 -3 -26 7 -57 22 -32
15 -80 36 -108 46 -27 11 -60 25 -72 33 -13 8 -23 11 -23 7 0 -4 -6 -3 -12 2
-7 5 -40 20 -73 33 -33 12 -73 28 -90 35 -139 59 -684 235 -737 238 -10 1 -18
4 -18 7 0 4 -6 7 -12 7 -7 1 -65 15 -128 32 -63 17 -185 47 -270 65 -132 30
-206 44 -405 81 -104 19 -300 45 -310 41 -7 -2 -16 -1 -21 4 -5 4 -40 11 -79
15 -38 3 -79 8 -90 11 -11 3 -42 6 -70 9 -27 2 -88 6 -135 10 -47 4 -87 9 -90
11 -9 10 -6 193 3 187 6 -4 7 -1 1 8 -13 21 -13 472 0 481 8 5 8 8 1 8 -8 0
-11 141 -10 446 0 245 -1 465 -3 487 l-4 42 -626 -2 c-345 0 -632 -2 -638 -2
-7 -1 -10 -246 -10 -822 1 -451 -1 -824 -4 -827 -7 -9 -15 -11 -102 -17 -64
-5 -107 -9 -278 -30 -19 -3 -60 -7 -91 -10 -31 -3 -64 -7 -75 -9 -10 -2 -50
-9 -89 -15 -107 -17 -120 -19 -120 -21 0 -1 -13 -3 -30 -5 -16 -2 -46 -6 -65
-10 -19 -4 -43 -7 -52 -7 -10 0 -18 -2 -18 -6 0 -4 -12 -7 -27 -6 -16 0 -41
-3 -58 -7 -16 -5 -46 -11 -65 -15 -19 -3 -39 -7 -45 -8 -5 -2 -21 -6 -35 -9
-14 -4 -36 -9 -50 -12 -14 -2 -43 -9 -65 -15 -22 -6 -51 -12 -65 -14 -46 -6
-444 -114 -490 -133 -8 -3 -22 -7 -30 -9 -49 -10 -519 -174 -585 -203 -11 -5
-63 -26 -115 -47 -52 -20 -128 -52 -168 -71 -41 -18 -75 -33 -78 -33 -2 0 -61
-28 -131 -62 -71 -33 -134 -62 -142 -64 -8 -1 -18 -9 -22 -16 -5 -7 -9 -10 -9
-6 0 9 -126 -56 -365 -187 -64 -35 -157 -89 -202 -118 -24 -15 -47 -27 -53
-27 -5 0 -10 -4 -10 -10 0 -5 -6 -10 -13 -10 -7 0 -22 -8 -33 -18 -10 -10 -22
-18 -25 -18 -7 1 -281 -178 -301 -196 -7 -7 -20 -14 -28 -16 -8 -2 -17 -7 -20
-11 -3 -4 -34 -27 -70 -52 -36 -24 -69 -47 -75 -52 -5 -4 -37 -27 -70 -52 -69
-51 -66 -49 -240 -186 -71 -56 -132 -105 -135 -108 -3 -3 -32 -28 -65 -56 -33
-27 -62 -52 -65 -55 -3 -3 -21 -18 -40 -34 -187 -153 -620 -590 -851 -860 -19
-22 -41 -47 -49 -56 -8 -9 -33 -38 -55 -65 -22 -28 -44 -55 -50 -62 -15 -19
-26 -33 -80 -103 -28 -36 -53 -67 -57 -70 -3 -3 -43 -55 -87 -115 -45 -61 -87
-117 -94 -126 -6 -8 -16 -22 -22 -31 -5 -8 -42 -62 -81 -119 -39 -57 -71 -107
-70 -111 1 -4 -6 -13 -15 -20 -9 -7 -25 -29 -35 -48 -11 -19 -21 -37 -25 -40
-6 -6 -128 -201 -153 -245 -9 -16 -27 -47 -39 -67 -43 -73 -121 -215 -181
-333 -33 -66 -63 -122 -67 -125 -3 -3 -12 -21 -21 -40 -9 -19 -37 -80 -63
-135 -71 -151 -84 -183 -78 -189 4 -3 2 -6 -4 -6 -6 0 -15 -12 -22 -27 -6 -16
-16 -41 -22 -58 -7 -16 -13 -32 -14 -35 0 -3 -11 -27 -24 -55 -12 -27 -24 -54
-25 -60 -2 -5 -8 -23 -14 -38 -7 -16 -12 -31 -12 -34 0 -3 -7 -19 -15 -36 -32
-70 -162 -441 -168 -482 -1 -5 -5 -12 -8 -15 -5 -5 -70 -222 -74 -250 -1 -8
-5 -22 -8 -30 -4 -8 -22 -76 -41 -150 -19 -74 -37 -142 -40 -150 -3 -8 -7 -28
-10 -45 -2 -16 -13 -70 -25 -120 -11 -49 -23 -106 -27 -125 -14 -73 -16 -86
-19 -105 -1 -11 -5 -27 -8 -35 -3 -8 -8 -33 -11 -55 -2 -22 -7 -49 -9 -60 -4
-18 -13 -73 -22 -135 -12 -85 -17 -118 -21 -145 -5 -33 -9 -63 -19 -145 -3
-30 -8 -66 -10 -80 -5 -29 -18 -212 -19 -252 0 -25 -4 -28 -36 -29 -47 0
-2495 0 -2543 0 -21 1 -36 5 -33 9 3 5 8 60 11 123 3 63 7 132 10 154 4 35 10
101 20 210 1 17 5 53 9 80 4 28 9 72 11 98 6 52 8 72 25 187 24 176 28 196 35
235 9 54 15 89 21 135 3 25 8 52 11 60 3 8 7 24 8 35 3 31 14 90 24 137 5 24
12 60 15 82 4 21 9 42 12 47 3 6 7 24 9 42 4 34 11 67 19 95 3 9 8 31 10 47 3
17 19 86 37 155 17 69 32 133 34 143 2 10 20 77 40 149 20 72 37 138 39 147 2
9 6 23 9 31 7 19 67 219 72 242 2 9 8 25 13 35 6 10 10 20 10 23 -1 8 64 214
71 225 3 6 6 12 7 15 2 17 34 112 41 123 4 6 9 21 10 32 2 10 9 23 16 27 6 4
9 8 5 8 -5 0 1 24 13 53 11 28 22 59 24 67 3 15 127 327 145 365 5 11 18 40
28 65 11 25 29 66 40 92 l21 48 -22 5 c-12 2 -47 6 -77 9 -30 3 -66 7 -80 10
-13 3 -42 8 -65 12 -22 3 -60 10 -85 16 -25 5 -52 11 -60 13 -78 16 -346 109
-364 126 -6 5 -16 9 -23 9 -12 0 -253 128 -263 139 -3 4 -25 19 -50 35 -168
108 -380 302 -500 455 -14 18 -34 42 -45 54 -12 12 -24 30 -28 40 -10 28 -21
20 -41 -31 -11 -26 -35 -81 -54 -122 -87 -191 -234 -558 -332 -830 -77 -215
-212 -627 -211 -645 0 -2 -6 -20 -14 -40 -9 -19 -14 -38 -13 -42 0 -5 -2 -15
-5 -23 -23 -55 -177 -644 -191 -730 -1 -8 -6 -25 -10 -37 -4 -12 -9 -32 -11
-45 -3 -13 -7 -34 -10 -48 -3 -14 -8 -36 -10 -50 -12 -57 -25 -117 -30 -140
-3 -14 -7 -36 -10 -50 -3 -14 -7 -35 -10 -47 -12 -53 -14 -64 -21 -110 -5 -26
-9 -50 -9 -53 -3 -10 -15 -76 -20 -105 -34 -207 -45 -276 -50 -310 -4 -22 -8
-50 -10 -61 -2 -12 -7 -48 -10 -80 -4 -33 -9 -66 -11 -76 -7 -40 -16 -109 -19
-144 -2 -22 -4 -41 -5 -44 -2 -3 -2 -8 -1 -12 0 -4 -4 -42 -9 -85 -19 -150
-21 -169 -25 -238 -2 -38 -5 -70 -5 -70 -1 0 -3 -16 -5 -35 -10 -116 -15 -189
-21 -305 -3 -71 -8 -132 -9 -133 -2 -2 -247 -4 -544 -4 l-541 0 0 -638 c0
-415 4 -641 10 -645 6 -3 10 -2 10 4 0 5 12 7 27 5 16 -3 35 -5 43 -5 59 3
154 1 158 -4 3 -2 10 0 17 5 7 6 23 6 43 1 17 -5 33 -7 36 -3 8 7 133 5 146
-3 5 -3 11 -1 14 4 3 5 23 7 43 4 21 -2 47 -4 58 -3 30 3 47 3 80 1 17 -1 112
-1 213 0 101 0 185 -1 187 -3 4 -4 14 -111 21 -228 3 -52 7 -117 9 -145 6 -84
23 -271 31 -345 3 -25 7 -65 9 -90 2 -25 4 -45 5 -45 1 0 3 -18 5 -40 2 -22 8
-75 15 -118 6 -43 13 -95 15 -115 4 -39 9 -78 26 -182 15 -95 22 -143 22 -157
0 -7 3 -13 7 -13 4 0 5 -14 2 -30 -3 -19 0 -30 7 -30 7 0 9 -4 6 -10 -5 -8 5
-84 19 -145 2 -5 6 -32 11 -60 4 -27 10 -54 13 -59 3 -6 6 -19 7 -30 3 -35 16
-109 25 -146 5 -19 11 -46 14 -60 10 -44 44 -203 60 -275 9 -38 37 -149 62
-245 25 -96 48 -186 51 -200 2 -14 7 -32 10 -40 3 -8 8 -24 10 -35 2 -11 7
-31 13 -45 7 -20 28 -90 35 -120 0 -3 4 -14 7 -25 4 -11 21 -67 38 -125 37
-123 167 -516 180 -545 5 -11 22 -58 39 -105 33 -97 121 -325 147 -385 10 -22
18 -42 19 -45 1 -3 6 -16 12 -30 6 -14 23 -54 38 -90 15 -36 35 -83 45 -105
10 -22 32 -74 50 -115 86 -201 334 -719 348 -730 4 -3 8 -12 10 -20 2 -8 17
-36 33 -63 16 -26 29 -54 29 -62 0 -8 4 -15 8 -15 5 0 19 -24 32 -52 13 -29
26 -55 29 -58 3 -3 13 -18 21 -35 8 -16 17 -32 20 -35 3 -3 19 -31 35 -62 17
-32 34 -58 39 -58 5 0 7 -3 3 -6 -6 -6 60 -125 77 -136 6 -4 8 -8 4 -8 -7 0
16 -40 69 -125 14 -22 93 -151 126 -205 12 -19 73 -114 137 -210 63 -96 117
-179 119 -185 2 -5 7 -12 11 -15 5 -4 150 -208 175 -248 6 -8 15 -23 22 -31 6
-9 62 -83 123 -166 62 -82 116 -151 121 -153 5 -2 9 -10 9 -18 0 -8 3 -14 8
-14 4 0 18 -18 32 -40 14 -22 27 -40 31 -40 3 0 20 -19 37 -42 17 -24 42 -56
56 -73 14 -16 29 -34 33 -40 5 -5 28 -35 53 -65 25 -30 50 -60 55 -68 6 -7 19
-23 31 -35 11 -12 45 -51 74 -87 51 -61 170 -197 215 -245 11 -12 63 -68 115
-125 98 -107 614 -626 712 -715 30 -27 79 -72 109 -100 81 -74 199 -178 288
-253 24 -20 54 -46 66 -57 25 -21 29 -25 115 -95 30 -25 57 -47 60 -50 3 -3
50 -41 105 -85 55 -43 105 -83 110 -87 6 -5 33 -25 60 -46 28 -20 52 -40 53
-44 2 -5 10 -8 18 -8 8 0 14 -4 14 -8 0 -5 36 -34 79 -65 44 -32 86 -64 95
-72 8 -8 18 -15 23 -15 4 0 20 -10 35 -23 32 -26 62 -47 178 -127 47 -32 92
-64 100 -71 9 -8 28 -20 43 -28 15 -8 27 -18 27 -23 0 -4 5 -8 11 -8 12 0 133
-80 137 -92 2 -4 8 -8 14 -8 6 0 25 -10 42 -23 17 -13 60 -41 96 -62 36 -21
67 -41 70 -44 3 -3 22 -15 43 -25 20 -11 37 -22 37 -26 0 -5 11 -11 25 -14 14
-4 25 -11 25 -16 0 -6 5 -10 11 -10 7 0 40 -18 75 -40 35 -22 68 -40 74 -40 5
0 10 -4 10 -10 0 -5 5 -10 10 -10 6 0 29 -11 51 -26 51 -32 98 -58 174 -98 33
-18 71 -39 85 -48 38 -24 146 -81 350 -186 102 -52 187 -99 188 -103 2 -5 7
-7 12 -4 4 2 45 -14 91 -37 46 -23 86 -43 89 -43 3 0 46 -20 95 -44 50 -24 95
-45 100 -46 9 -3 54 -22 220 -95 22 -10 92 -39 155 -65 63 -26 124 -51 135
-55 11 -5 81 -32 155 -60 74 -29 144 -56 155 -60 11 -5 72 -27 135 -50 63 -22
122 -43 130 -47 8 -3 20 -7 26 -8 12 -3 126 -41 154 -52 8 -3 20 -7 25 -8 6
-2 37 -12 70 -23 33 -11 85 -28 115 -37 160 -49 190 -58 253 -75 37 -11 100
-29 140 -40 92 -26 67 -20 322 -84 121 -30 231 -57 245 -60 14 -2 59 -12 100
-21 41 -9 82 -18 90 -20 97 -21 198 -40 290 -56 36 -6 72 -13 80 -16 8 -3 29
-7 45 -10 17 -2 86 -13 155 -24 163 -27 169 -27 213 -34 71 -10 102 -15 122
-19 11 -2 49 -7 85 -11 73 -7 94 -10 165 -20 28 -4 68 -8 90 -10 22 -2 63 -6
90 -9 28 -4 77 -9 110 -12 33 -3 80 -7 105 -10 25 -2 74 -7 110 -9 36 -2 101
-7 145 -10 44 -3 118 -8 164 -11 47 -2 87 -6 89 -9 2 -2 4 -247 4 -543 l0
-540 639 1 639 0 0 36 c1 20 1 264 1 544 l1 507 41 1 c47 2 35 1 372 25 28 2
75 5 105 8 30 3 87 8 125 11 39 4 81 8 95 10 31 5 97 13 175 20 33 4 71 8 85
10 37 6 100 14 145 19 66 8 178 26 265 42 14 2 45 7 70 10 24 3 47 7 50 9 3 2
24 6 46 9 22 4 51 9 64 11 14 3 41 8 60 11 34 6 160 30 210 40 14 3 34 7 45 9
36 6 68 14 72 19 4 4 -13 26 -52 70 -56 62 -165 218 -165 235 0 6 -3 11 -8 11
-4 0 -18 21 -31 48 -14 26 -33 59 -43 74 -10 14 -18 31 -18 38 0 7 -8 24 -18
38 -11 15 -21 36 -25 47 -3 11 -21 58 -41 105 -20 46 -36 91 -36 100 0 9 -4
20 -9 26 -6 5 -12 20 -14 34 -3 14 -10 38 -16 54 -7 16 -10 35 -7 42 3 7 1 14
-4 16 -4 2 -11 17 -14 33 -3 17 -12 68 -21 115 -9 47 -18 104 -21 128 -2 23
-6 63 -9 90 -6 59 -6 315 0 362 3 19 7 61 10 93 3 33 8 64 12 69 6 12 -72 4
-152 -15 -11 -3 -40 -8 -65 -11 -25 -3 -56 -8 -70 -11 -14 -3 -45 -8 -70 -12
-25 -3 -51 -10 -57 -15 -9 -7 -13 -7 -13 1 0 7 -4 10 -8 7 -11 -6 -79 -19
-172 -31 -25 -3 -56 -8 -70 -10 -14 -3 -50 -7 -80 -10 -30 -3 -68 -8 -85 -10
-91 -12 -135 -17 -180 -20 -27 -2 -72 -6 -100 -9 -140 -14 -227 -20 -298 -20
l-79 -1 -1 73 c-1 39 2 72 6 72 5 0 5 4 2 10 -3 5 -6 36 -5 67 1 87 1 86 -3
116 -2 15 0 30 5 33 4 3 5 10 2 16 -4 6 -6 40 -4 77 2 78 2 78 -3 114 -2 15 0
30 5 33 4 3 6 10 2 15 -3 5 -5 55 -4 109 0 55 1 106 1 113 0 6 0 66 0 132 0
66 0 129 -1 140 0 11 1 45 1 75 1 64 1 66 -4 103 -2 15 0 30 5 33 4 3 5 10 2
16 -4 6 -6 40 -4 77 2 78 2 78 -3 114 -2 15 0 30 5 33 4 3 6 10 2 15 -3 5 -5
55 -4 109 0 55 1 106 1 113 0 6 0 66 0 132 0 66 0 129 -1 140 0 11 1 45 1 75
1 64 1 66 -4 103 -2 15 0 30 5 33 4 3 5 10 2 16 -4 6 -6 40 -4 77 2 72 2 74
-3 111 -2 14 -1 29 2 35 3 5 4 24 2 40 -2 26 1 31 21 32 25 0 134 10 208 19
25 3 65 7 90 10 25 2 61 7 80 10 19 2 55 7 80 9 58 6 111 14 130 20 8 2 40 6
71 10 31 3 67 8 80 10 23 5 40 8 119 22 19 3 44 7 55 10 11 2 52 10 90 18 39
7 77 16 85 19 8 3 31 7 50 10 19 3 50 10 68 15 17 5 32 8 32 5 0 -3 8 0 18 5
9 5 31 11 47 14 35 5 203 46 225 54 8 3 20 7 25 9 6 1 53 14 105 28 52 15 102
28 110 30 8 3 28 9 43 15 16 6 33 9 38 5 5 -3 9 -1 9 4 0 5 6 9 13 10 15 1
135 40 162 53 11 5 54 20 95 33 41 13 105 36 142 49 36 14 68 23 71 21 2 -2
10 2 17 11 7 8 22 15 34 15 12 0 26 4 32 9 5 4 50 24 99 44 96 37 295 124 407
176 37 18 71 31 74 30 4 0 10 3 13 8 3 4 58 34 121 66 230 116 472 251 644
360 101 63 261 169 304 199 28 21 52 35 52 31 0 -4 6 0 13 9 10 12 135 104
194 143 9 6 27 20 42 33 14 13 38 31 53 40 16 9 28 20 28 25 0 4 5 5 10 2 6
-3 10 -2 10 3 0 5 19 22 43 39 23 17 52 40 64 50 12 11 34 28 48 39 15 10 37
28 49 39 67 59 86 75 90 75 3 0 17 12 33 28 16 15 53 47 82 72 29 25 70 61 90
80 21 19 82 76 135 125 138 127 322 315 472 481 40 43 83 90 95 105 13 14 42
47 64 74 22 27 52 61 68 77 15 16 27 31 27 34 0 2 24 33 53 67 28 34 64 78 79
97 69 89 175 227 188 247 8 11 46 65 85 120 38 54 92 132 119 173 28 41 54 78
59 81 5 3 8 9 8 13 -1 3 14 31 34 61 19 31 35 60 35 65 0 6 5 10 10 10 6 0 14
8 17 17 4 9 45 82 93 163 47 80 108 186 134 235 27 50 53 96 59 103 5 6 6 12
1 12 -5 0 -4 4 1 8 18 13 245 483 245 507 0 7 7 18 15 25 9 7 14 15 11 17 -2
3 7 30 21 61 38 86 144 352 148 370 2 10 9 31 16 47 6 17 13 35 15 40 26 85
98 294 105 307 5 10 9 24 9 31 0 8 9 43 21 78 12 35 23 71 25 79 2 8 8 33 14
55 6 22 13 47 15 55 2 8 4 15 5 15 1 0 3 8 6 18 2 9 6 23 7 30 2 6 7 29 12 50
4 20 11 37 17 37 5 0 7 4 4 9 -3 5 10 75 29 157 35 148 47 207 48 232 0 6 3
12 6 12 3 0 7 10 7 23 1 12 4 38 8 57 14 85 27 157 32 180 8 38 12 70 20 130
3 30 10 62 15 71 4 9 6 19 3 21 -2 3 0 36 5 74 6 38 13 96 16 129 4 33 9 74
11 90 2 17 7 64 10 105 4 41 8 82 10 90 1 8 3 26 3 40 l1 26 1303 0 1304 0 -3
-36 c-3 -44 -15 -229 -20 -295 -1 -27 -3 -50 -4 -50 -1 0 -3 -13 -5 -30 -7
-88 -17 -183 -21 -208 -2 -15 -7 -51 -9 -80 -3 -28 -7 -63 -9 -77 -3 -22 -7
-49 -23 -170 -2 -19 -6 -42 -7 -50 -4 -21 -16 -99 -21 -135 -2 -16 -7 -41 -10
-55 -3 -14 -7 -43 -9 -65 -2 -22 -6 -47 -9 -55 -3 -8 -11 -46 -18 -85 -18
-105 -18 -105 -23 -123 -4 -15 -13 -62 -21 -117 -2 -11 -4 -21 -5 -22 -3 -4
-6 -13 -14 -58 -5 -22 -19 -87 -33 -145 -14 -58 -27 -114 -29 -125 -7 -38 -13
-60 -43 -169 -16 -61 -28 -113 -25 -117 2 -4 -1 -11 -7 -14 -5 -4 -8 -13 -5
-21 3 -8 1 -14 -4 -14 -6 0 -10 -6 -10 -12 0 -13 -47 -190 -58 -218 -3 -8 -6
-17 -7 -20 -11 -42 -37 -129 -42 -140 -3 -8 -7 -19 -9 -25 -1 -5 -14 -45 -28
-89 -14 -43 -23 -83 -19 -90 3 -6 2 -7 -2 -3 -5 4 -14 -9 -21 -30 -6 -21 -32
-95 -57 -165 -25 -69 -43 -129 -39 -132 3 -3 1 -6 -5 -6 -6 0 -14 -12 -18 -27
-3 -16 -12 -41 -19 -58 -8 -16 -30 -73 -51 -125 -20 -52 -46 -114 -56 -137
-10 -24 -19 -45 -19 -48 0 -2 -13 -34 -30 -70 -16 -36 -30 -68 -30 -70 0 -5
-31 -73 -82 -185 -43 -92 -58 -129 -57 -136 0 -4 -3 -10 -8 -13 -4 -3 -33 -58
-63 -121 -30 -63 -72 -145 -92 -182 -20 -37 -33 -68 -30 -68 4 0 2 -4 -3 -8
-6 -4 -25 -34 -42 -67 -17 -33 -44 -82 -59 -110 -15 -27 -37 -68 -49 -90 -11
-22 -28 -51 -37 -65 -8 -14 -68 -115 -134 -225 -65 -110 -121 -202 -125 -205
-3 -3 -15 -20 -25 -39 -37 -66 -136 -215 -146 -219 -5 -2 -8 -10 -8 -18 0 -8
-4 -14 -10 -14 -5 0 -10 -6 -10 -14 0 -8 -3 -16 -7 -18 -5 -2 -26 -30 -48 -63
-22 -33 -43 -64 -48 -70 -58 -76 -94 -131 -91 -137 3 -5 1 -8 -4 -8 -5 0 -29
-27 -53 -61 -24 -33 -51 -69 -59 -79 -15 -19 -30 -38 -89 -115 -43 -56 -38
-49 -130 -165 -46 -58 -93 -116 -104 -130 -12 -14 -46 -54 -77 -90 -30 -36
-71 -83 -90 -104 -19 -22 -45 -51 -58 -65 -73 -84 -92 -105 -137 -156 -185
-205 -792 -795 -818 -795 -5 0 -5 -4 -2 -10 3 -6 2 -10 -4 -10 -5 0 -21 -10
-35 -23 -13 -12 -46 -40 -72 -62 -25 -22 -52 -45 -58 -50 -9 -8 -121 -100
-196 -162 -108 -88 -159 -128 -233 -183 -48 -35 -87 -68 -87 -72 0 -4 -6 -8
-12 -8 -12 0 -46 -25 -91 -64 -9 -9 -20 -16 -25 -16 -4 0 -18 -10 -32 -22 -14
-13 -45 -36 -70 -53 -25 -16 -46 -33 -48 -37 -2 -5 -10 -8 -17 -8 -7 0 -15 -4
-17 -8 -3 -9 -191 -137 -336 -229 -53 -34 -101 -66 -107 -70 -5 -5 -17 -12
-25 -16 -8 -4 -28 -16 -45 -27 -16 -11 -43 -27 -60 -36 l-29 -17 48 -41 c70
-59 182 -172 246 -245 30 -35 60 -69 65 -75 6 -6 22 -27 35 -46 13 -19 27 -37
30 -40 18 -15 125 -190 174 -285 51 -97 138 -308 151 -365 1 -8 10 -40 19 -70
18 -62 45 -187 52 -240 2 -19 6 -46 9 -59 2 -13 7 -76 11 -140 3 -64 8 -118
10 -120 2 -2 44 22 95 53 50 31 95 56 100 56 5 0 9 5 9 10 0 6 4 10 9 10 6 0
30 14 54 30 25 17 48 30 51 30 3 0 14 7 23 15 10 8 22 15 27 14 5 0 12 4 15 9
3 5 51 38 106 73 55 35 102 66 105 69 3 3 39 28 80 55 41 27 77 53 80 57 3 3
11 8 19 10 8 2 23 11 35 22 20 18 236 173 306 220 19 13 45 32 57 42 11 11 31
26 43 34 31 21 164 123 170 130 3 3 26 21 53 40 26 18 47 37 47 42 0 4 6 8 13
8 7 0 18 9 25 20 7 11 17 20 23 20 7 0 22 11 35 25 13 14 26 25 29 25 4 0 12
6 19 12 7 7 34 31 61 53 90 74 120 100 127 110 4 5 8 7 8 4 0 -4 17 10 38 30
21 20 64 59 96 86 32 28 73 65 92 82 19 18 36 33 38 33 4 0 28 23 231 215 236
223 444 434 655 665 47 51 109 117 138 148 28 30 52 57 52 61 0 3 20 27 43 52
48 53 85 95 142 164 22 27 47 56 55 64 8 9 27 33 42 53 15 20 33 42 40 50 8 7
29 33 48 58 19 25 39 50 45 56 5 6 19 23 30 38 11 15 27 36 36 46 8 10 24 31
35 45 43 60 99 130 106 133 5 2 8 8 8 13 0 8 51 80 70 99 3 3 18 24 34 48 16
23 32 42 35 42 3 0 12 12 18 28 11 23 25 42 73 99 5 7 10 17 10 23 0 5 5 10
10 10 6 0 10 7 10 15 0 9 7 18 15 21 8 4 15 11 15 18 0 6 30 52 65 101 36 50
65 95 65 102 0 6 4 13 8 15 8 3 111 158 177 266 21 34 42 62 46 62 5 0 8 3 8
8 -3 17 2 31 14 44 7 7 28 41 47 76 18 34 37 62 42 62 5 0 6 5 3 10 -3 6 -1
10 4 10 6 0 11 4 11 8 0 5 37 74 83 153 46 79 105 185 132 234 26 50 62 115
78 145 30 54 254 497 257 505 1 4 54 119 101 220 13 28 23 52 24 55 5 24 18
50 26 50 5 0 8 3 7 8 -4 10 154 385 165 393 5 3 8 10 7 15 0 5 2 18 6 29 3 11
7 22 8 25 1 3 4 10 7 15 4 6 12 28 19 50 7 22 16 45 20 50 4 6 10 22 14 37 3
14 16 48 28 75 11 26 22 53 23 58 0 6 4 17 8 25 3 8 20 56 37 105 16 50 34 99
39 110 5 11 17 45 26 75 9 30 19 62 22 70 4 8 7 17 7 20 1 3 6 19 13 35 6 17
25 77 43 135 18 58 36 116 40 130 41 121 192 681 207 760 2 14 9 43 15 65 5
22 12 50 14 63 3 12 14 62 25 110 12 48 23 97 25 110 2 12 6 34 9 50 3 15 8
36 10 47 2 11 6 31 9 45 3 14 11 52 17 85 15 89 17 100 19 100 1 0 3 16 6 35
2 19 11 71 19 115 8 44 17 98 20 120 4 22 10 65 15 95 11 63 18 109 24 160 3
19 7 51 10 70 13 81 40 313 50 440 4 41 9 86 12 100 2 14 7 59 10 100 3 41 7
95 8 120 2 25 7 98 11 162 4 64 8 134 10 155 l2 38 519 2 c285 1 531 2 545 2
l26 1 -1 638 -1 637 -537 0 c-295 1 -540 4 -545 8 -4 5 -8 18 -9 30 0 12 -5
78 -9 147 -4 69 -9 141 -10 160 -2 19 -6 69 -9 110 -3 41 -10 120 -16 175 -6
55 -13 125 -16 155 -3 30 -7 69 -10 85 -6 47 -14 105 -20 165 -3 30 -7 66 -9
80 -3 14 -9 61 -15 105 -6 44 -13 91 -16 105 -3 14 -7 41 -9 60 -2 19 -9 62
-15 95 -6 33 -13 74 -15 90 -3 17 -7 41 -10 55 -5 26 -24 134 -31 185 -3 17
-8 37 -11 45 -3 8 -7 26 -9 40 -4 31 -15 82 -48 235 -15 66 -29 131 -32 145
-3 14 -21 87 -40 164 -18 76 -31 142 -28 147 3 5 1 9 -4 9 -5 0 -14 26 -21 58
-7 31 -16 68 -20 82 -5 14 -14 45 -21 70 -7 25 -16 56 -21 70 -5 14 -10 34
-12 45 -2 11 -9 31 -14 45 -6 14 -9 29 -6 33 3 4 1 13 -5 20 -5 7 -15 35 -21
62 -7 28 -17 59 -21 70 -5 11 -21 61 -35 110 -15 50 -38 122 -51 160 -14 39
-27 77 -29 85 -2 8 -9 29 -15 45 -6 17 -13 37 -15 45 -2 8 -15 47 -30 85 -15
39 -30 82 -35 96 -12 41 -100 271 -116 306 -8 17 -14 34 -14 38 0 4 -7 23 -16
43 -9 21 -20 46 -24 57 -4 11 -15 36 -23 55 -8 19 -31 76 -52 125 -21 50 -47
110 -58 135 -12 25 -22 47 -23 50 -2 10 -22 56 -48 110 -14 29 -26 60 -26 67
0 7 -3 13 -8 13 -4 0 -13 15 -20 33 -8 17 -22 49 -33 70 -10 22 -19 45 -19 53
0 8 -4 14 -10 14 -5 0 -10 5 -10 12 0 15 -63 142 -72 146 -5 2 -8 9 -8 16 0
17 -192 391 -276 537 -24 42 -44 81 -44 87 0 7 -3 12 -8 12 -4 0 -18 21 -32
48 -13 26 -42 74 -62 107 -21 33 -38 65 -38 72 0 6 -3 13 -7 15 -5 2 -26 32
-47 68 -157 261 -453 712 -481 732 -7 5 -7 8 0 8 6 0 6 3 0 8 -6 4 -46 57 -90
117 -43 61 -81 112 -85 115 -3 3 -21 28 -39 55 -19 28 -38 52 -41 55 -3 3 -41
52 -85 110 -43 58 -87 114 -97 125 -10 11 -41 49 -69 85 -60 75 -178 219 -196
238 -7 7 -29 33 -50 59 -21 26 -47 56 -58 68 -11 11 -49 54 -85 95 -178 202
-281 311 -550 580 -146 146 -308 303 -359 350 -52 47 -99 90 -105 95 -6 6 -54
48 -106 95 -52 47 -112 100 -132 119 -21 19 -48 41 -60 50 -13 8 -36 27 -52
41 -15 14 -40 35 -55 48 -14 12 -35 30 -46 40 -11 9 -40 33 -65 52 -25 19 -47
37 -50 41 -3 3 -43 35 -90 73 -47 37 -92 73 -100 79 -43 35 -184 143 -198 152
-25 16 -42 29 -63 48 -10 9 -21 17 -24 17 -4 0 -43 28 -116 83 -36 28 -245
172 -278 192 -9 6 -18 13 -21 16 -3 3 -50 34 -105 70 -55 35 -104 67 -110 72
-5 4 -44 28 -85 54 -41 25 -105 66 -142 90 -37 23 -70 43 -72 43 -3 0 -25 14
-49 30 -25 17 -50 30 -56 30 -6 0 -11 5 -11 10 0 6 -4 10 -9 10 -5 0 -42 20
-83 44 -40 25 -104 61 -142 81 -38 20 -101 56 -142 80 -40 24 -75 41 -78 37
-3 -3 -6 -1 -6 5 0 6 -15 17 -32 24 -18 7 -63 30 -100 50 -38 21 -68 34 -68
31 0 -4 -4 -2 -8 5 -6 10 -513 263 -526 263 -3 0 -37 15 -76 34 -38 19 -70 32
-70 29 0 -3 -6 -1 -12 5 -7 5 -89 42 -183 82 -93 39 -183 77 -200 84 -16 7
-61 26 -100 41 -38 15 -79 31 -90 36 -45 18 -244 92 -295 109 -30 10 -72 25
-92 34 -21 9 -38 13 -38 10 0 -4 -6 -2 -12 3 -11 9 -78 34 -98 38 -3 1 -68 22
-145 47 -77 25 -189 60 -250 78 -60 18 -137 41 -170 52 -33 11 -67 21 -75 23
-8 1 -40 10 -71 19 -31 9 -65 19 -75 21 -28 6 -147 36 -164 41 -8 2 -51 13
-95 23 -44 11 -98 25 -120 31 -37 10 -238 55 -295 66 -14 3 -45 10 -70 15 -53
12 -294 59 -330 64 -14 2 -41 6 -60 10 -19 4 -47 8 -62 10 -15 2 -31 6 -35 8
-4 3 -33 8 -64 11 -31 4 -67 9 -80 11 -13 3 -40 7 -59 10 -76 10 -126 17 -150
21 -61 9 -98 14 -140 18 -25 3 -63 8 -85 10 -22 3 -61 8 -87 11 -27 3 -69 7
-95 10 -121 14 -135 16 -443 40 -30 2 -100 7 -155 10 -55 3 -109 8 -120 10
-11 2 -23 4 -26 4 -10 1 -5 45 6 53 7 5 7 8 0 8 -9 0 -13 192 -5 210 1 3 1 10
0 15 -7 32 -6 112 3 123 5 7 6 12 0 12 -8 0 -10 76 -3 90 1 3 1 10 0 15 -7 32
-6 112 3 123 5 7 6 12 0 12 -11 0 -11 71 1 89 7 11 6 12 -5 6 -12 -8 -12 -6 0
8 7 9 9 17 4 17 -5 0 -9 16 -9 35 0 19 5 35 11 35 7 0 7 3 0 8 -6 4 -11 21
-11 37 0 17 5 33 11 37 7 5 7 8 0 8 -6 0 -11 16 -11 35 0 19 5 35 11 35 7 0 7
3 0 8 -6 4 -11 21 -10 37 l0 30 -640 3 -641 2 3 -62z m3 -7513 c4 -11 5 -24 2
-29 -2 -4 -4 -29 -4 -55 2 -109 3 -287 1 -296 -1 -5 0 -14 1 -20 1 -5 1 -50 0
-100 -1 -101 -3 -542 -2 -580 2 -56 3 -252 1 -260 -1 -5 0 -14 1 -20 1 -8 1
-96 -1 -200 0 -5 0 -39 0 -75 0 -36 0 -72 0 -80 0 -8 0 -69 1 -135 0 -66 0
-124 -1 -130 -1 -5 0 -14 1 -20 1 -5 1 -50 0 -100 0 -49 -1 -94 -1 -100 0 -5
0 -43 1 -83 2 -80 0 -85 -33 -89 -24 -3 -332 -69 -387 -82 -118 -30 -362 -111
-465 -156 -22 -9 -44 -18 -50 -19 -5 -1 -26 -9 -45 -18 -19 -8 -64 -28 -100
-43 -36 -15 -68 -32 -72 -39 -4 -6 -8 -8 -8 -4 0 9 -193 -92 -202 -106 -4 -6
-8 -8 -8 -4 0 4 -29 -10 -65 -32 -36 -22 -67 -40 -70 -40 -7 0 -100 -63 -106
-73 -3 -5 -8 -7 -10 -6 -4 3 -58 -30 -69 -41 -3 -3 -12 -9 -21 -15 -39 -24
-177 -123 -189 -135 -3 -3 -27 -23 -55 -45 -130 -104 -178 -147 -340 -310
-145 -145 -185 -188 -270 -290 -22 -27 -46 -54 -53 -62 -7 -7 -10 -13 -5 -13
4 0 3 -4 -3 -8 -5 -4 -23 -25 -40 -47 -16 -22 -33 -45 -39 -51 -45 -48 -295
-447 -295 -470 0 -7 -4 -14 -9 -16 -12 -5 -99 -178 -166 -333 -7 -16 -19 -46
-28 -65 -58 -136 -171 -485 -161 -501 3 -5 1 -9 -4 -9 -8 0 -21 -47 -37 -128
-2 -13 -7 -32 -10 -42 -3 -10 -15 -69 -25 -131 -11 -61 -21 -114 -24 -116 -4
-5 -1020 -7 -1041 -2 -6 1 -14 1 -20 0 -8 -2 -260 -1 -320 1 -5 0 -26 0 -45
-1 -19 -1 -44 -1 -55 -1 -69 1 -122 1 -132 1 -7 -1 -19 -1 -25 -2 -7 0 -28 1
-46 4 -18 2 -35 0 -38 -4 -3 -5 -10 -7 -15 -3 -6 3 -41 5 -77 4 -63 -1 -75 -1
-104 1 -7 1 -26 1 -43 0 -16 -1 -50 0 -75 2 -25 1 -57 -1 -72 -4 -14 -4 -29
-5 -32 -1 -4 3 -25 5 -49 4 -48 -3 -52 -3 -111 -1 -24 1 -48 -1 -54 -4 -21
-14 -34 22 -28 80 17 197 61 466 112 687 19 83 37 160 39 171 4 18 16 66 21
88 1 4 3 10 4 15 2 4 4 12 5 17 1 6 5 17 8 25 6 14 27 90 40 143 7 25 19 63
27 82 4 11 18 52 30 90 28 92 102 299 109 305 4 3 7 12 9 20 1 8 7 24 11 35 5
11 28 67 52 125 24 58 47 107 51 108 4 2 6 8 2 13 -3 5 0 9 6 9 6 0 8 5 5 10
-3 6 3 24 15 40 12 17 19 30 15 30 -16 0 316 619 337 628 5 2 8 8 8 13 0 13
280 444 299 459 4 3 35 43 71 90 83 111 124 164 130 170 3 3 25 30 50 60 25
30 49 60 55 66 5 6 33 38 60 69 153 178 402 427 610 612 39 33 83 72 100 85
16 12 37 30 46 38 50 48 380 299 419 320 14 7 27 16 30 20 22 31 468 302 665
405 72 37 136 72 143 78 6 5 12 6 12 1 0 -5 4 -4 8 2 4 5 23 17 42 26 90 42
171 78 240 108 41 18 89 38 105 45 77 35 189 74 197 69 4 -3 8 -1 8 5 0 5 24
17 53 26 28 10 66 23 82 30 29 12 188 65 210 70 5 1 17 4 25 8 46 17 243 71
303 82 9 2 21 6 25 9 5 3 19 7 33 10 13 2 87 18 164 35 153 33 181 38 223 46
15 3 36 7 47 10 11 2 43 7 70 11 28 3 103 14 168 23 65 10 132 17 148 17 16
-1 29 1 29 4 0 3 14 5 32 5 22 0 33 -7 38 -20z m2 -4342 c-6 -2 -10 -9 -7 -13
3 -5 5 -82 5 -172 -1 -90 -1 -172 -1 -183 1 -11 1 -53 0 -92 l0 -73 639 0 639
0 2 163 c2 89 2 168 2 175 -5 76 -5 101 1 124 3 15 3 30 -2 33 -4 3 -6 14 -3
26 5 16 11 19 34 14 28 -6 153 -53 219 -82 111 -48 353 -186 388 -220 7 -7 20
-13 28 -13 8 0 14 -4 14 -9 0 -5 24 -26 53 -48 117 -89 233 -203 343 -338 41
-49 78 -95 84 -102 5 -6 32 -47 60 -90 27 -43 54 -83 59 -89 13 -16 128 -248
136 -275 4 -13 13 -37 20 -54 26 -59 57 -157 51 -162 -3 -3 -124 -5 -271 -5
l-265 1 0 -67 c-3 -424 -1 -1205 4 -1209 2 -3 125 -5 271 -5 l266 0 -6 -29
c-4 -16 -18 -57 -31 -91 -13 -34 -24 -68 -24 -75 0 -7 -4 -13 -10 -13 -5 0
-10 -7 -10 -16 0 -18 -93 -208 -135 -274 -49 -78 -99 -155 -105 -160 -3 -3
-17 -21 -30 -40 -13 -19 -29 -40 -35 -46 -5 -7 -26 -31 -45 -55 -36 -45 -193
-204 -246 -249 -59 -51 -193 -150 -203 -150 -5 0 -14 -6 -18 -13 -7 -11 -30
-26 -128 -83 -31 -18 -226 -115 -254 -126 -14 -6 -68 -25 -118 -43 l-93 -32
-1 41 c-1 23 -2 50 -3 61 0 11 2 32 6 48 4 15 3 27 -1 27 -4 0 -4 27 -1 61 3
33 3 62 0 64 -3 2 -4 18 -3 37 3 52 4 78 3 146 l0 62 -640 0 -641 0 0 -77 c1
-43 1 -87 0 -98 0 -41 0 -321 0 -347 l1 -26 -102 35 c-103 35 -317 133 -393
181 -100 63 -150 98 -153 105 -2 4 -10 7 -18 7 -8 0 -14 3 -14 8 0 4 -11 14
-24 22 -100 62 -365 329 -445 448 -13 20 -28 38 -33 40 -4 2 -8 10 -8 18 0 8
-4 14 -8 14 -5 0 -14 10 -21 23 -6 12 -17 31 -24 42 -109 179 -175 317 -232
487 l-22 66 241 0 c133 0 256 1 274 1 l32 1 0 639 0 639 -227 0 c-358 1 -323
-3 -313 30 26 85 56 161 100 257 11 22 24 51 30 65 28 66 125 225 199 325 109
147 284 329 401 418 30 23 59 48 63 54 4 7 15 13 22 13 8 0 15 5 15 10 0 6 12
16 28 23 15 6 35 20 46 29 10 9 33 24 50 33 17 8 54 29 81 45 103 61 281 141
309 139 5 0 12 4 15 9 8 13 91 40 121 40 14 0 19 -2 12 -5z m-10275 -2768 c7
-2 15 0 18 5 4 6 18 7 33 3 15 -3 33 -6 42 -5 36 4 142 2 150 -3 5 -3 11 -1
14 4 3 5 23 7 43 4 21 -2 47 -4 58 -3 30 2 47 3 80 1 17 -1 85 -1 152 -1 68 1
127 -1 133 -5 5 -3 10 -2 10 4 0 5 12 7 28 5 15 -3 34 -5 42 -5 59 3 154 1
158 -4 3 -2 10 0 17 5 7 6 23 6 43 1 17 -5 33 -7 36 -3 8 7 133 5 146 -3 5 -3
11 -1 14 4 3 5 23 7 43 4 21 -2 47 -4 58 -3 30 2 47 3 80 1 17 -1 85 -1 152
-1 68 1 127 -1 133 -5 5 -3 10 -2 10 4 0 5 12 7 28 5 15 -3 34 -5 42 -5 59 3
154 1 158 -4 3 -2 10 0 17 5 7 6 23 6 43 1 17 -5 33 -7 36 -3 8 7 133 5 146
-3 5 -3 11 -1 14 4 3 5 23 7 43 4 21 -2 47 -4 58 -3 25 2 39 2 90 0 22 -1 45
-1 50 0 6 1 26 2 46 1 32 -1 35 -4 34 -28 -1 -16 1 -62 6 -103 4 -41 10 -104
14 -140 4 -36 8 -75 10 -86 4 -23 14 -106 20 -164 2 -19 6 -44 8 -55 3 -11 8
-45 12 -75 4 -30 9 -62 10 -70 1 -8 6 -35 10 -60 4 -25 9 -54 11 -65 3 -11 11
-58 20 -105 26 -140 31 -160 59 -285 14 -66 27 -124 28 -130 2 -5 6 -16 11
-23 4 -7 6 -16 3 -19 -3 -3 -1 -17 5 -32 5 -14 12 -37 14 -51 3 -14 9 -38 14
-55 5 -16 21 -70 35 -120 34 -123 49 -171 92 -305 20 -63 38 -117 38 -120 1
-3 5 -12 8 -20 6 -14 47 -130 88 -249 10 -30 25 -61 31 -69 7 -8 12 -16 10
-16 -4 -1 5 -28 18 -61 5 -11 29 -72 55 -135 55 -134 77 -183 153 -340 30 -63
56 -120 58 -126 1 -6 12 -29 25 -50 13 -22 42 -75 64 -119 22 -44 42 -82 45
-85 3 -3 14 -23 25 -45 24 -47 165 -291 225 -390 80 -131 291 -446 318 -473 6
-7 12 -16 12 -20 0 -6 16 -28 60 -79 5 -7 10 -15 10 -19 0 -4 8 -14 18 -23 9
-9 30 -35 46 -59 16 -24 36 -47 45 -52 9 -5 12 -10 7 -10 -9 0 63 -92 76 -98
5 -2 8 -8 8 -13 0 -5 16 -25 35 -44 19 -19 31 -35 27 -35 -4 0 -2 -4 3 -8 6
-4 32 -34 59 -67 53 -63 58 -69 109 -126 17 -20 64 -71 102 -115 77 -87 425
-438 521 -524 101 -92 217 -195 259 -231 22 -19 42 -36 45 -39 3 -3 28 -23 55
-45 28 -21 52 -42 55 -45 4 -5 113 -93 190 -153 33 -26 136 -103 156 -117 123
-85 150 -104 154 -110 3 -4 10 -9 15 -11 6 -2 97 -62 202 -132 106 -70 200
-130 210 -134 10 -4 20 -9 23 -13 3 -3 39 -25 80 -49 41 -25 78 -49 82 -55 4
-6 8 -7 8 -3 0 5 12 0 28 -10 15 -10 52 -32 82 -47 30 -16 67 -38 83 -48 15
-11 27 -17 27 -14 0 4 17 -4 38 -17 20 -13 64 -36 97 -52 33 -17 63 -34 66
-38 3 -5 10 -9 15 -9 5 0 52 -20 104 -46 52 -25 98 -46 102 -46 4 -1 13 -7 20
-13 6 -7 17 -13 23 -13 10 0 224 -92 259 -111 10 -6 26 -12 35 -14 9 -3 67
-25 129 -50 62 -25 119 -45 127 -45 8 0 15 -4 15 -10 0 -5 9 -10 20 -10 11 0
28 -4 38 -9 32 -16 67 -30 107 -41 22 -6 56 -18 75 -25 19 -8 87 -30 150 -49
63 -19 153 -46 200 -60 47 -15 96 -28 109 -31 13 -2 38 -9 56 -15 18 -6 41
-13 51 -15 10 -2 39 -9 64 -16 25 -6 52 -12 60 -14 8 -2 57 -13 108 -25 51
-12 99 -23 105 -24 7 -2 23 -6 37 -9 14 -4 39 -9 55 -11 17 -3 77 -15 135 -26
58 -11 123 -22 145 -26 22 -4 49 -8 60 -10 11 -2 38 -6 60 -9 22 -3 51 -7 65
-10 54 -11 69 -13 136 -20 38 -4 80 -8 94 -10 96 -12 145 -17 300 -30 41 -4
76 -8 78 -10 2 -2 3 -565 2 -1252 -1 -1341 -1 -1305 5 -1311 2 -3 0 -13 -6
-24 -8 -16 -18 -18 -57 -14 -26 3 -83 8 -127 11 -44 4 -100 8 -125 10 -25 3
-74 7 -110 10 -76 6 -152 14 -195 19 -16 2 -59 7 -95 11 -36 3 -72 8 -80 10
-8 2 -35 7 -60 10 -25 3 -58 7 -75 11 -16 3 -47 7 -70 10 -47 5 -69 8 -150 23
-33 5 -80 13 -105 16 -66 9 -92 14 -173 31 -39 8 -83 17 -97 19 -14 2 -36 7
-50 10 -14 3 -34 7 -45 9 -11 2 -63 14 -115 26 -52 12 -106 24 -120 26 -14 3
-97 23 -185 45 -88 22 -168 42 -178 44 -10 2 -32 9 -50 15 -38 12 -150 43
-157 43 -3 0 -29 8 -59 18 -29 10 -57 16 -62 13 -5 -3 -9 0 -9 5 0 6 -6 11
-14 11 -14 0 -254 74 -291 89 -11 5 -100 36 -198 70 -238 82 -579 218 -787
313 -36 16 -101 46 -145 66 -152 69 -500 246 -698 354 -221 121 -237 130 -251
141 -6 4 -65 40 -131 79 -66 39 -123 76 -127 82 -4 6 -8 8 -8 3 0 -4 -22 9
-50 28 -27 19 -52 35 -55 35 -9 0 -69 44 -73 53 -2 4 -8 7 -13 7 -9 0 -79 47
-145 97 -17 12 -36 23 -42 23 -6 0 -12 4 -14 8 -2 7 -106 82 -176 127 -9 6
-23 15 -31 22 -9 7 -73 54 -142 105 -127 94 -340 257 -349 268 -3 3 -34 30
-69 59 -35 29 -70 58 -77 64 -6 7 -20 19 -30 27 -27 22 -137 113 -150 125 -6
6 -44 39 -84 75 -331 293 -709 675 -985 995 -38 44 -72 82 -77 83 -4 2 -8 10
-8 18 0 8 -4 14 -8 14 -13 0 -372 443 -372 459 0 5 -3 11 -7 13 -5 2 -25 26
-45 53 -21 28 -48 63 -60 79 -23 29 -46 61 -168 237 -116 166 -160 230 -160
234 0 1 -30 50 -67 107 -38 57 -73 113 -80 123 -6 11 -34 56 -61 100 -65 104
-90 146 -99 165 -3 8 -18 33 -31 54 -34 54 -80 136 -95 166 -6 14 -14 27 -17
30 -8 8 -43 75 -184 355 -130 257 -172 345 -248 520 -21 50 -45 104 -53 120
-7 17 -25 59 -40 95 -14 36 -32 79 -39 95 -8 17 -35 86 -61 155 -25 69 -50
134 -55 145 -10 22 -56 155 -90 255 -12 36 -26 74 -30 85 -5 11 -27 81 -50
155 -23 74 -44 144 -48 155 -3 11 -7 23 -8 28 -1 4 -2 9 -3 12 0 3 -1 7 -1 10
-1 2 -7 20 -16 40 -8 19 -12 35 -9 35 3 0 1 8 -4 18 -6 11 -12 30 -15 43 -3
13 -12 49 -20 79 -52 192 -64 240 -59 240 3 0 1 6 -5 13 -5 6 -12 28 -15 47
-3 19 -7 42 -11 50 -3 8 -8 27 -11 43 -12 64 -17 85 -31 141 -8 32 -13 64 -10
72 3 7 1 14 -4 16 -4 2 -10 19 -13 38 -3 19 -7 42 -10 50 -4 8 -9 32 -12 54
-3 21 -7 41 -9 45 -2 3 -7 28 -10 54 -6 42 -15 91 -32 177 -3 14 -7 39 -8 55
-2 17 -6 41 -9 55 -3 14 -9 43 -11 65 -3 22 -8 52 -11 67 -3 14 -6 49 -8 77
-1 28 -5 51 -9 51 -3 0 -5 8 -4 17 2 9 -1 36 -5 60 -5 24 -11 67 -14 96 -3 29
-8 75 -11 102 -4 28 -8 66 -10 85 -1 19 -5 60 -8 90 -10 108 -14 156 -21 258
-4 56 -8 110 -10 120 -5 36 12 49 57 45 24 -2 48 -6 55 -8z m4573 6 c0 4 12 5
28 3 15 -3 34 -5 42 -5 59 3 154 1 158 -4 3 -2 10 0 17 5 7 6 23 6 43 1 17 -5
33 -7 36 -3 8 7 133 5 146 -3 5 -3 11 -1 14 4 3 5 23 7 43 4 21 -2 47 -4 58
-3 30 2 47 3 80 1 17 -1 85 -1 152 -1 68 1 127 -1 133 -5 5 -3 10 -2 10 4 0 5
12 7 28 5 15 -3 34 -5 42 -5 59 3 154 1 158 -4 3 -2 10 0 17 5 7 6 23 6 43 1
17 -5 33 -7 36 -3 8 7 133 5 146 -3 5 -3 11 -1 14 4 3 5 23 7 43 4 37 -4 57
-4 98 0 11 2 37 0 58 -4 20 -3 40 -2 43 2 3 5 17 6 32 2 15 -3 33 -6 42 -5 40
5 223 2 228 -2 3 -3 10 -1 17 4 7 6 23 6 43 1 17 -5 33 -7 36 -3 7 7 147 5
154 -3 3 -2 8 -26 13 -52 20 -129 44 -235 79 -370 36 -136 118 -384 131 -398
5 -5 9 -16 9 -25 0 -8 6 -26 13 -40 7 -14 21 -47 32 -75 10 -27 25 -60 33 -72
8 -13 12 -23 9 -23 -9 0 152 -314 213 -415 55 -91 108 -173 134 -210 8 -11 42
-58 75 -105 33 -47 65 -91 72 -99 6 -7 28 -34 47 -60 19 -25 38 -48 41 -51 3
-3 30 -34 60 -70 66 -79 343 -356 425 -425 33 -28 70 -60 83 -72 13 -13 28
-23 33 -23 6 0 10 -4 10 -8 0 -4 12 -15 28 -24 15 -9 39 -27 53 -40 14 -13 61
-48 105 -78 43 -30 84 -58 89 -62 6 -5 33 -23 60 -40 28 -18 52 -35 55 -38 3
-3 20 -13 38 -22 17 -10 47 -26 64 -35 18 -10 35 -20 38 -23 8 -8 55 -33 205
-108 135 -68 201 -98 350 -157 39 -15 79 -31 90 -36 21 -9 173 -59 190 -63 14
-4 98 -26 110 -30 6 -2 12 -4 15 -5 3 0 28 -7 55 -15 28 -8 64 -17 80 -20 17
-3 39 -8 50 -10 24 -6 148 -31 228 -47 43 -9 55 -15 47 -24 -5 -6 -7 -14 -4
-17 4 -4 6 -179 3 -278 -1 -8 0 -26 1 -40 1 -24 1 -357 0 -570 -1 -58 -1 -111
-1 -117 2 -31 3 -160 2 -190 0 -7 0 -29 0 -48 0 -19 0 -43 0 -52 -1 -98 0
-127 3 -130 2 -2 0 -19 -4 -38 -4 -19 -6 -36 -3 -39 2 -2 4 -69 3 -148 -1 -78
-1 -150 -1 -158 0 -56 0 -307 -1 -315 0 -5 1 -14 2 -20 1 -5 2 -58 1 -117 -1
-105 -1 -107 -23 -103 -13 2 -50 6 -83 9 -33 4 -75 8 -93 11 -51 7 -113 15
-162 22 -25 3 -54 7 -65 10 -11 2 -58 10 -105 19 -86 15 -104 18 -150 28 -14
3 -41 9 -60 13 -47 9 -50 10 -52 13 -2 1 -12 3 -23 5 -11 2 -27 5 -35 8 -8 2
-33 8 -55 12 -22 5 -42 10 -45 10 -3 1 -18 5 -35 9 -16 4 -52 15 -79 23 -28 9
-57 17 -65 17 -15 2 -163 48 -326 101 -93 31 -263 92 -300 109 -57 26 -163 66
-174 66 -6 0 -11 4 -11 8 0 4 -17 14 -37 22 -111 39 -511 242 -645 327 -21 12
-40 23 -44 23 -3 0 -31 16 -62 37 -31 20 -73 46 -92 58 -95 60 -349 230 -390
262 -8 6 -41 32 -72 57 -32 25 -60 46 -63 46 -3 0 -14 8 -24 18 -11 9 -26 22
-33 27 -244 186 -577 500 -817 771 -185 208 -263 304 -394 484 -42 58 -80 110
-85 115 -4 6 -39 57 -77 115 -39 58 -73 107 -77 108 -5 2 -8 7 -8 12 0 4 -33
61 -74 127 -77 124 -246 429 -250 451 -1 7 -8 18 -14 24 -7 7 -12 15 -12 19 0
4 -27 65 -61 135 -33 71 -64 138 -69 149 -4 11 -15 36 -23 55 -104 241 -198
508 -268 760 -22 80 -45 161 -50 180 -6 19 -12 42 -13 50 -2 8 -6 26 -9 40
-33 137 -47 198 -52 230 -7 48 -16 95 -20 110 -2 8 -7 33 -10 55 -3 23 -8 52
-10 65 -11 53 -15 77 -20 125 -2 28 -7 61 -10 75 -5 25 -8 54 -20 167 l-6 62
38 3 c21 2 55 0 76 -3 20 -4 37 -3 37 2z m10538 -5 c12 -3 22 -1 22 4 0 5 12
6 28 4 15 -3 34 -5 42 -5 59 3 154 1 158 -4 3 -2 10 0 17 5 7 6 23 6 43 1 17
-5 33 -7 36 -3 8 7 133 5 146 -3 5 -3 11 -1 14 4 3 5 23 7 43 4 21 -2 47 -4
58 -3 30 2 47 3 80 1 17 -1 85 -1 152 -1 68 1 127 -1 133 -5 5 -3 10 -2 10 4
0 5 12 7 28 5 15 -3 34 -5 42 -5 59 3 154 1 158 -4 3 -2 10 0 17 5 7 6 23 6
43 1 17 -5 33 -7 36 -3 8 7 133 5 146 -3 5 -3 11 -1 14 4 3 5 23 7 43 4 21 -2
47 -4 58 -3 30 2 47 3 80 1 17 -1 85 -1 152 -1 68 1 127 -1 133 -5 5 -3 10 -2
10 4 0 5 12 7 28 5 15 -3 34 -5 42 -5 60 3 152 1 160 -4 5 -3 11 -1 14 4 3 5
23 7 43 4 21 -2 44 -5 51 -5 12 -1 10 -68 -4 -143 -2 -11 -6 -46 -9 -79 -4
-33 -8 -62 -10 -65 -1 -3 -6 -31 -9 -61 -3 -30 -8 -66 -11 -80 -3 -14 -8 -38
-10 -55 -3 -16 -17 -88 -32 -160 -15 -71 -27 -142 -27 -157 -1 -16 -4 -28 -7
-28 -4 0 -10 -15 -13 -32 -10 -53 -13 -68 -47 -188 -17 -63 -33 -122 -34 -130
-2 -8 -4 -16 -5 -17 -2 -2 -3 -6 -4 -10 -3 -17 -49 -161 -68 -213 -11 -30 -21
-62 -22 -70 -2 -8 -10 -33 -20 -54 -9 -22 -19 -51 -23 -65 -3 -14 -9 -30 -13
-36 -4 -5 -13 -28 -20 -50 -7 -22 -19 -51 -27 -63 -8 -13 -12 -26 -9 -30 3 -3
0 -15 -7 -26 -7 -12 -26 -52 -42 -91 -56 -137 -205 -448 -217 -453 -4 -2 -8
-10 -8 -18 0 -8 -11 -33 -25 -55 -14 -22 -30 -50 -35 -62 -6 -12 -14 -29 -20
-37 -37 -56 -100 -169 -100 -179 0 -6 -4 -11 -9 -11 -5 0 -11 -8 -14 -17 -6
-20 -38 -75 -48 -83 -3 -3 -26 -36 -50 -75 -43 -70 -194 -287 -233 -336 -12
-14 -28 -36 -36 -49 -8 -12 -22 -30 -30 -40 -29 -35 -60 -75 -82 -105 -13 -17
-31 -40 -41 -50 -10 -11 -46 -54 -79 -95 -34 -41 -66 -80 -72 -86 -6 -6 -45
-49 -86 -94 -84 -94 -369 -378 -457 -457 -138 -123 -233 -201 -403 -332 -58
-45 -113 -88 -123 -96 -9 -8 -21 -15 -25 -15 -4 0 -19 -10 -33 -22 -14 -13
-32 -27 -41 -33 -9 -5 -68 -44 -130 -86 -138 -93 -277 -179 -288 -179 -5 0
-10 -4 -12 -8 -1 -5 -28 -22 -58 -39 -30 -16 -73 -40 -95 -53 -210 -121 -793
-389 -809 -372 -3 3 -6 1 -6 -5 0 -6 -10 -13 -22 -16 -13 -3 -68 -21 -123 -42
-55 -20 -104 -38 -110 -39 -5 -2 -17 -6 -25 -9 -17 -7 -185 -58 -295 -89 -87
-25 -361 -94 -401 -102 -16 -2 -87 -17 -159 -31 -71 -15 -148 -29 -170 -31
-71 -8 -124 -15 -212 -30 -29 -4 -67 -9 -158 -18 l-30 -3 2 141 c3 249 3 290
0 336 -1 25 1 57 5 72 3 15 3 30 -1 32 -7 5 -5 81 3 103 3 7 2 13 -2 13 -4 0
-5 27 -2 61 3 33 3 62 0 64 -3 2 -4 18 -3 37 1 18 2 44 3 58 1 29 2 449 1 468
-1 6 -2 31 -4 55 -1 23 1 54 5 69 3 15 3 30 -1 32 -7 5 -5 81 3 103 3 7 2 13
-2 13 -4 0 -5 27 -2 61 3 33 3 62 0 64 -3 2 -4 18 -3 37 4 66 4 86 3 298 0
118 0 220 1 225 0 6 2 21 2 35 1 14 7 25 12 26 10 0 85 13 115 18 8 2 26 6 40
10 14 4 39 9 55 11 17 2 31 4 33 6 2 2 2 2 57 14 48 10 43 8 135 35 41 12 85
23 98 24 12 0 22 4 22 7 0 3 24 11 53 19 28 7 66 19 82 26 17 7 68 27 115 44
228 85 425 179 643 309 43 25 87 50 98 56 10 5 19 13 19 17 0 5 5 8 11 8 7 0
34 16 60 35 27 19 51 35 54 35 3 0 13 6 22 14 10 8 68 51 128 97 61 45 126 96
146 113 20 17 65 56 100 86 78 67 369 358 369 369 0 4 12 18 26 32 14 13 49
53 77 89 29 36 56 70 62 76 5 6 28 37 50 69 22 31 47 65 56 75 9 10 18 21 20
26 2 5 38 61 79 124 94 144 98 151 110 175 6 11 26 47 44 80 51 90 131 253
188 385 9 19 29 71 45 115 17 44 34 89 38 100 5 11 9 22 10 25 1 3 5 14 9 25
45 117 125 419 151 570 9 49 17 99 19 113 4 27 38 33 104 18z"/>
<path d="M4908 23295 c-2 -2 -23 -5 -48 -8 -105 -14 -136 -19 -150 -24 -8 -3
-28 -7 -44 -10 -63 -10 -227 -70 -325 -118 -81 -40 -242 -143 -306 -196 -83
-70 -212 -207 -278 -295 -37 -50 -67 -94 -67 -97 0 -3 -13 -26 -30 -50 -16
-25 -30 -48 -30 -51 0 -3 -14 -34 -31 -68 -17 -35 -32 -70 -34 -78 -2 -8 -9
-28 -16 -45 -7 -16 -13 -32 -14 -35 -1 -3 -5 -12 -8 -20 -10 -22 -48 -171 -52
-200 -1 -14 -6 -45 -9 -69 -16 -98 -21 -277 -11 -361 2 -19 6 -55 9 -80 7 -61
12 -92 36 -185 22 -85 23 -89 34 -120 5 -11 13 -33 18 -50 6 -16 26 -63 44
-103 19 -41 34 -78 34 -83 0 -5 5 -9 10 -9 6 0 10 -5 10 -11 0 -16 85 -144
148 -224 58 -73 185 -203 241 -245 18 -14 45 -34 59 -45 136 -103 312 -191
497 -248 203 -63 481 -79 715 -41 152 24 322 80 447 145 43 22 92 48 108 56
33 18 198 139 232 172 12 12 28 21 34 21 7 0 10 2 7 5 -2 3 26 37 63 75 38 39
88 96 111 128 24 31 45 59 48 62 3 3 25 39 49 80 25 41 48 78 54 81 5 3 8 8 7
10 -2 6 15 48 42 105 14 28 37 91 52 140 15 49 30 96 33 104 3 8 7 24 8 35 2
11 8 49 14 85 17 110 24 191 23 290 0 52 -1 95 -2 95 -1 0 -4 20 -6 45 -7 91
-16 144 -45 250 -12 41 -22 80 -23 85 -2 6 -9 24 -15 40 -7 17 -19 47 -27 67
-19 53 -78 172 -86 176 -5 2 -8 8 -8 13 0 16 -111 179 -123 179 -5 0 -8 3 -4
6 16 16 -288 314 -321 314 -6 0 -12 4 -14 8 -4 11 -94 72 -106 72 -6 0 -12 4
-14 8 -12 30 -336 162 -436 178 -20 3 -40 8 -43 10 -4 2 -24 6 -45 9 -22 3
-50 8 -64 11 -24 5 -347 13 -352 9z"/>
<path d="M20127 21974 c-2 -2 -39 -6 -83 -9 -43 -3 -90 -7 -104 -10 -14 -3
-52 -10 -85 -16 -57 -10 -107 -23 -150 -39 -11 -5 -38 -15 -60 -23 -64 -24
-159 -69 -177 -85 -10 -8 -18 -12 -18 -9 0 16 -191 -103 -254 -158 -16 -14
-32 -25 -36 -25 -8 0 -200 -188 -200 -196 0 -3 -6 -12 -12 -19 -77 -85 -189
-275 -228 -385 -7 -19 -19 -49 -26 -66 -8 -17 -16 -42 -18 -55 -3 -13 -5 -25
-7 -26 -1 -2 -2 -6 -4 -10 -1 -5 -4 -15 -8 -23 -6 -16 -22 -96 -34 -175 -10
-61 -9 -421 1 -490 13 -99 65 -284 103 -371 9 -21 17 -42 17 -45 2 -12 51
-104 59 -107 4 -2 7 -8 7 -12 0 -14 65 -122 107 -177 92 -122 180 -213 283
-295 30 -23 57 -46 58 -50 2 -5 10 -8 18 -8 8 0 14 -4 14 -8 0 -5 35 -29 78
-54 114 -67 172 -98 172 -92 0 3 12 -1 28 -10 42 -22 92 -42 152 -60 122 -37
118 -35 196 -50 12 -3 39 -8 60 -12 22 -4 131 -8 244 -8 162 -1 224 3 295 18
404 82 771 329 994 666 74 113 80 122 88 140 4 8 9 17 12 20 7 5 43 79 47 95
2 6 15 39 29 73 15 35 28 72 30 82 2 10 10 38 19 63 8 25 18 56 20 69 3 13 7
34 10 48 12 54 20 171 20 300 0 170 -7 231 -48 409 -29 126 -125 345 -202 460
-16 24 -33 51 -39 60 -5 9 -12 18 -16 21 -3 3 -18 23 -34 45 -71 98 -308 313
-395 357 -14 7 -31 18 -38 25 -17 16 -187 101 -210 105 -9 2 -19 6 -22 9 -16
20 -251 83 -345 93 -16 2 -41 6 -55 10 -26 6 -248 15 -253 10z"/>
<path d="M19267 5394 c-1 -1 -36 -4 -77 -7 -67 -5 -127 -15 -197 -32 -13 -3
-33 -7 -45 -10 -13 -2 -36 -8 -53 -11 -16 -4 -36 -10 -45 -15 -8 -4 -42 -17
-75 -29 -89 -32 -175 -72 -175 -81 0 -5 -3 -8 -7 -7 -12 4 -112 -55 -183 -108
-93 -70 -93 -70 -193 -169 -138 -137 -239 -283 -317 -455 -41 -93 -87 -215
-94 -255 -2 -11 -11 -48 -20 -82 -24 -90 -30 -160 -29 -328 0 -142 6 -229 19
-285 3 -14 7 -38 10 -55 14 -83 76 -259 137 -385 15 -32 69 -123 77 -130 3 -3
14 -21 24 -40 31 -57 89 -130 173 -215 153 -156 284 -254 453 -337 85 -42 298
-117 375 -133 41 -8 187 -26 205 -25 34 1 129 0 137 -1 4 -1 10 -1 13 0 3 1
41 4 85 5 144 6 278 33 425 84 8 3 17 6 20 6 3 1 59 28 125 60 183 89 399 256
520 402 22 26 47 55 56 65 9 9 18 20 20 25 2 5 25 41 52 81 26 39 47 76 47 81
0 6 4 12 8 14 22 8 126 253 147 344 2 10 11 44 19 74 29 106 40 201 39 345 0
98 -9 236 -18 265 -2 8 -6 31 -9 50 -8 53 -12 70 -32 135 -10 33 -19 65 -20
70 -1 6 -16 46 -34 90 -17 44 -39 100 -47 125 -9 25 -24 57 -34 72 -11 14 -19
29 -19 32 0 6 -105 150 -125 172 -5 6 -23 28 -40 48 -29 37 -100 110 -147 151
-67 59 -136 115 -142 115 -4 0 -12 4 -19 10 -58 47 -77 61 -77 55 0 -3 -13 3
-29 14 -16 12 -34 21 -40 21 -6 0 -11 4 -11 9 0 5 -8 11 -17 14 -10 3 -61 24
-113 47 -82 36 -199 72 -280 86 -14 3 -31 7 -38 9 -30 11 -374 28 -385 19z"/>
</g>
</svg>
