<svg version="1.1" id="Layer_1" xmlns="http://www.w3.org/2000/svg" xmlns:xlink="http://www.w3.org/1999/xlink" x="0px" y="0px"
	 width="100%" viewBox="0 0 2309 493" enable-background="new 0 0 2309 493" xml:space="preserve">
<path fill="#000000" opacity="1.000000" stroke="none" 
	d="
M1594.000000,494.000000 
	C1064.166626,494.000000 534.833313,493.995361 5.500017,494.092834 
	C1.750976,494.093506 0.903577,493.249329 0.906112,489.499939 
	C1.015172,328.166656 1.015172,166.833313 0.906111,5.500063 
	C0.903577,1.750656 1.751014,0.906863 5.500011,0.907332 
	C772.166687,1.003207 1538.833374,1.003207 2305.500000,0.907332 
	C2309.249023,0.906863 2310.096436,1.750655 2310.093994,5.500063 
	C2309.984863,166.833313 2309.985107,328.166656 2310.093994,489.499939 
	C2310.096680,493.249329 2309.249268,494.095062 2305.500000,494.093445 
	C2068.500000,493.989685 1831.500000,494.000000 1594.000000,494.000000 
z"/>
<path fill="#6200EA" opacity="1.000000" stroke="none" 
	d="
M589.454102,374.813660 
	C589.184204,410.199249 589.028564,445.352631 589.221558,480.504120 
	C589.248657,485.447693 587.850403,486.550751 583.131714,486.453156 
	C568.143127,486.143158 553.143250,486.252655 538.149780,486.403900 
	C534.912354,486.436584 533.927979,485.525299 533.932190,482.220337 
	C534.021729,411.743927 534.024170,341.267365 533.927429,270.790955 
	C533.922607,267.305786 534.882568,266.255096 538.381714,266.303894 
	C551.708069,266.489899 565.041260,266.529938 578.365540,266.281036 
	C582.101562,266.211243 583.947815,267.689148 585.768494,270.689636 
	C609.769653,310.243347 633.889587,349.724915 657.987366,389.219971 
	C658.753174,390.475159 659.598938,391.681549 660.421387,392.932098 
	C662.401123,391.899048 662.917480,390.021149 663.826477,388.496429 
	C687.268188,349.174255 710.703735,309.848236 734.030151,270.457642 
	C735.748840,267.555206 737.561584,266.240875 741.080750,266.293091 
	C755.239624,266.503357 769.404297,266.466156 783.564697,266.314484 
	C786.834900,266.279449 787.795776,267.278381 787.797241,270.562927 
	C787.828003,341.205841 787.947021,411.848755 788.144714,482.491394 
	C788.153503,485.627655 787.104248,486.412445 784.139587,486.391235 
	C767.979065,486.275726 751.815674,486.211273 735.657288,486.428284 
	C731.724426,486.481110 731.025696,485.046478 731.023621,481.507782 
	C731.001587,445.020508 730.821716,408.533356 730.608398,371.592377 
	C730.477173,370.979095 730.423462,370.819611 730.301270,370.903046 
	C728.390320,371.720886 728.065002,373.565155 727.256348,374.914001 
	C710.166016,403.421082 693.072266,431.926788 676.175415,460.548553 
	C674.214355,463.870514 672.125977,465.159546 668.307617,464.936035 
	C662.503418,464.596252 656.650574,464.603027 650.845520,464.935181 
	C647.145447,465.146912 645.251709,463.655334 643.404480,460.625458 
	C626.092896,432.230347 608.622681,403.932037 590.989136,375.328796 
	C590.505249,374.679443 590.133789,374.533112 589.454102,374.813660 
z"/>
<path fill="#212121" opacity="1.000000" stroke="none" 
	d="
M1910.747070,26.260715 
	C1938.508789,59.761536 1966.029785,92.999832 1993.783325,126.519081 
	C1995.542969,123.895340 1994.947144,121.850365 1994.949585,119.941803 
	C1994.992676,85.620125 1994.977051,51.298386 1994.984741,16.976658 
	C1994.986328,10.043944 1995.006592,10.026208 2001.890503,10.021514 
	C2017.885132,10.010608 2033.880981,10.132689 2049.873291,9.944197 
	C2054.254395,9.892561 2056.054199,11.012599 2056.045166,15.800374 
	C2055.915283,85.276634 2055.927490,154.753265 2056.025146,224.229630 
	C2056.031250,228.493912 2054.815430,230.146133 2050.349121,230.073120 
	C2036.524170,229.847168 2022.693115,229.963684 2008.864624,230.013092 
	C2006.228760,230.022507 2004.206299,229.436874 2002.367676,227.210678 
	C1978.203247,197.954254 1953.938721,168.780548 1929.688599,139.594833 
	C1922.585571,131.046097 1915.449463,122.524933 1908.119141,113.740150 
	C1906.399292,115.852203 1907.025635,117.911087 1907.023315,119.766487 
	C1906.979370,154.254776 1906.994995,188.743118 1906.985962,223.231461 
	C1906.984253,229.955261 1906.960327,229.980972 1900.387451,229.987167 
	C1884.226318,230.002380 1868.063110,229.852524 1851.905151,230.079178 
	C1847.280518,230.144058 1845.916992,228.570831 1845.924316,224.033783 
	C1846.036621,154.724060 1846.031372,85.414070 1845.933594,16.104307 
	C1845.927490,11.744445 1846.959351,9.825189 1851.774414,9.922490 
	C1865.430786,10.198458 1879.097412,10.102890 1892.757935,9.959770 
	C1896.091431,9.924845 1898.348389,10.996799 1900.349854,13.671011 
	C1903.536621,17.928820 1907.101440,21.903629 1910.747070,26.260715 
z"/>
<path fill="#212121" opacity="1.000000" stroke="none" 
	d="
M743.957642,221.904724 
	C743.957703,153.420883 743.956421,85.421745 743.959961,17.422607 
	C743.960327,10.032031 743.973328,10.023618 751.435486,10.020042 
	C764.268677,10.013894 777.102844,10.108165 789.934326,9.961638 
	C793.424011,9.921789 795.913757,11.070023 798.117798,13.738153 
	C828.013306,49.928543 857.962097,86.074890 887.923950,122.210396 
	C888.949463,123.447227 889.935059,125.551476 891.669678,125.070892 
	C893.653320,124.521301 892.874329,122.224785 892.876221,120.674431 
	C892.917419,87.674904 892.963074,54.675159 892.874451,21.675814 
	C892.843201,10.017629 892.682007,10.017941 904.745850,10.018082 
	C918.745667,10.018244 932.748047,10.169744 946.743835,9.933814 
	C951.399658,9.855330 953.159302,11.146705 953.149719,16.093100 
	C953.015381,85.425301 953.022461,154.757904 953.139038,224.090164 
	C953.146790,228.717056 951.607605,230.152664 947.072510,230.073669 
	C933.743469,229.841507 920.406860,229.910278 907.075073,230.044312 
	C903.573730,230.079514 901.240662,228.826385 899.010681,226.127457 
	C876.638611,199.050858 854.132324,172.085159 831.687622,145.068512 
	C824.666992,136.617828 817.736328,128.092484 810.721863,119.636749 
	C809.295532,117.917397 808.151672,115.838783 805.903198,114.818474 
	C804.339355,116.821640 804.948669,118.890297 804.946289,120.795418 
	C804.903625,154.961594 804.920654,189.127853 804.910095,223.294083 
	C804.908020,229.949036 804.867859,229.981964 798.234680,229.987732 
	C782.734863,230.001190 767.235107,229.995148 751.735291,229.990982 
	C744.005005,229.988922 744.005005,229.982941 743.957642,221.904724 
z"/>
<path fill="#212121" opacity="1.000000" stroke="none" 
	d="
M1220.022217,85.015976 
	C1228.995850,117.104790 1227.000000,147.814072 1210.488770,176.668289 
	C1197.877441,198.707443 1178.363403,212.694763 1154.721802,221.272659 
	C1138.256348,227.246796 1121.210449,229.868820 1103.785034,229.941849 
	C1070.636108,230.080795 1037.485596,229.888535 1004.337463,230.096283 
	C999.204285,230.128464 997.861633,228.454361 997.871582,223.493729 
	C998.009827,154.529739 997.961853,85.565376 997.969910,16.601112 
	C997.970703,10.050177 998.005066,10.022794 1004.753784,10.022527 
	C1040.068848,10.021131 1075.413452,9.135573 1110.690186,10.302345 
	C1143.906616,11.400968 1174.197754,21.594233 1197.914551,46.459999 
	C1208.312744,57.361965 1215.487061,70.232185 1220.022217,85.015976 
z"/>
<path fill="#6200EA" opacity="1.000000" stroke="none" 
	d="
M1709.000244,266.378174 
	C1730.659790,266.537079 1751.875488,265.353882 1772.963135,267.181305 
	C1792.997314,268.917480 1812.338501,273.643860 1828.783691,286.330688 
	C1846.387329,299.911163 1855.207642,317.967987 1857.097656,339.976013 
	C1858.912964,361.112946 1854.593750,380.291351 1841.109741,397.011169 
	C1834.948242,404.651520 1827.271729,410.534515 1818.636963,414.987335 
	C1814.782227,416.975189 1815.093628,418.407135 1817.239258,421.487213 
	C1830.661621,440.754578 1843.908691,460.144012 1857.209473,479.495972 
	C1858.509644,481.387848 1859.780396,483.300018 1861.044434,485.172607 
	C1859.751709,486.957367 1858.123535,486.299347 1856.769409,486.303009 
	C1837.771118,486.354309 1818.772217,486.279572 1799.774536,486.398560 
	C1796.785156,486.417267 1794.955688,485.509857 1793.251221,482.980957 
	C1781.710327,465.857086 1769.930786,448.894104 1758.403687,431.761078 
	C1756.524170,428.967590 1754.591919,427.728149 1751.155273,427.832672 
	C1742.830322,428.085938 1734.486816,428.094330 1726.162231,427.834900 
	C1722.340210,427.715820 1721.003418,428.687286 1721.063599,432.766815 
	C1721.301880,448.928619 1721.067139,465.097015 1721.232788,481.260620 
	C1721.270264,484.922516 1720.643555,486.503143 1716.420288,486.442780 
	C1698.925293,486.192688 1681.422974,486.206177 1663.927368,486.434784 
	C1659.800171,486.488708 1659.028198,485.043732 1659.033447,481.281128 
	C1659.133179,411.287048 1659.138916,341.292755 1659.021118,271.298767 
	C1659.014526,267.368958 1660.057129,266.228729 1664.005249,266.288544 
	C1678.833862,266.513275 1693.668091,266.378326 1709.000244,266.378174 
z"/>
<path fill="#212121" opacity="1.000000" stroke="none" 
	d="
M1639.032227,225.038315 
	C1627.430542,208.111938 1615.977173,191.526871 1604.681763,174.835007 
	C1602.759521,171.994278 1600.470215,170.969727 1597.171875,171.025330 
	C1589.176025,171.160126 1581.173340,171.206955 1573.180054,171.012650 
	C1569.262085,170.917419 1567.927734,172.404037 1567.962769,176.280594 
	C1568.105835,192.108643 1567.871094,207.940979 1568.108521,223.766754 
	C1568.179932,228.518616 1566.733398,230.158905 1561.874878,230.086609 
	C1545.216187,229.838760 1528.549438,229.852753 1511.890015,230.080276 
	C1507.232300,230.143906 1505.925293,228.512665 1505.932373,224.006897 
	C1506.042114,154.691116 1506.039795,85.375092 1505.936646,16.059299 
	C1505.930054,11.632545 1507.096436,9.904905 1511.831665,9.929191 
	C1546.155518,10.105238 1580.507812,9.198322 1614.796509,10.313377 
	C1641.480591,11.181133 1666.485962,18.448841 1685.541382,39.063358 
	C1697.341187,51.828537 1702.891113,67.250191 1704.018188,84.391670 
	C1705.241333,102.995651 1702.337891,120.622421 1691.218018,136.181870 
	C1684.515625,145.560242 1675.958008,152.910828 1665.851074,158.338379 
	C1661.930664,160.443649 1662.070435,162.309326 1664.385742,165.629318 
	C1678.010864,185.166733 1691.478394,204.814270 1704.932739,224.469986 
	C1705.891968,225.871429 1708.023926,227.274567 1706.858521,229.177628 
	C1705.938477,230.680008 1703.778442,229.966187 1702.166382,229.969345 
	C1684.004272,230.004959 1665.840820,229.875473 1647.681030,230.081619 
	C1643.643433,230.127457 1640.968262,228.857056 1639.032227,225.038315 
z"/>
<path fill="#212121" opacity="1.000000" stroke="none" 
	d="
M1463.915161,109.000000 
	C1463.920410,127.313850 1464.126831,145.153885 1460.077881,162.662140 
	C1451.274658,200.729645 1427.433838,223.698914 1389.354126,231.290268 
	C1362.083008,236.726868 1335.000366,235.809601 1308.970947,224.588394 
	C1286.610107,214.948776 1271.755371,198.265991 1263.331543,175.607819 
	C1258.156006,161.687042 1256.309204,147.112595 1256.175049,132.461487 
	C1255.820923,93.802582 1256.132080,55.137939 1255.950317,16.476654 
	C1255.926758,11.461878 1257.365723,9.825688 1262.459595,9.912202 
	C1279.119385,10.195150 1295.790039,10.190569 1312.450195,9.913830 
	C1317.488403,9.830142 1319.037476,11.361039 1319.015137,16.431072 
	C1318.841064,56.092289 1318.933228,95.754646 1318.929810,135.416656 
	C1318.929199,142.626236 1319.852173,149.703384 1322.050537,156.571274 
	C1326.612183,170.822052 1335.915649,179.899551 1350.980835,182.211777 
	C1366.555298,184.602188 1381.097778,182.850327 1391.791382,169.627335 
	C1399.346558,160.285095 1401.854614,148.989212 1401.916626,137.327087 
	C1402.127930,97.499535 1401.997681,57.670181 1402.001953,17.841516 
	C1402.002686,10.024397 1402.010986,10.020032 1410.039429,10.018683 
	C1426.037476,10.015997 1442.037842,10.166652 1458.032349,9.927144 
	C1462.716675,9.856998 1464.012329,11.525064 1463.991211,16.011341 
	C1463.845825,46.840328 1463.915161,77.670326 1463.915161,109.000000 
z"/>
<path fill="#6200EA" opacity="1.000000" stroke="none" 
	d="
M1525.003418,314.092194 
	C1519.540405,314.327179 1513.065918,312.031647 1510.004028,314.912750 
	C1506.650757,318.067993 1509.088501,324.663177 1508.911133,329.750366 
	C1508.708130,335.574432 1509.108398,341.424835 1508.778687,347.237274 
	C1508.558472,351.117035 1509.974976,351.922882 1513.602661,351.905548 
	C1542.591064,351.766846 1571.580444,351.807831 1600.569458,351.843048 
	C1607.720581,351.851715 1606.824219,351.064758 1606.850830,358.348206 
	C1606.893433,370.010315 1606.708374,381.675903 1606.950195,393.333160 
	C1607.028198,397.086670 1605.959106,398.075531 1602.215454,398.055603 
	C1572.894043,397.899384 1543.570679,398.069855 1514.249878,397.860199 
	C1509.875977,397.828949 1508.585083,398.847595 1508.749268,403.313202 
	C1509.116455,413.295959 1509.084961,423.308624 1508.761353,433.294373 
	C1508.620850,437.633972 1509.742065,438.900177 1514.235596,438.874237 
	C1548.888184,438.674316 1583.542847,438.860748 1618.195190,438.651337 
	C1622.923584,438.622803 1624.425659,439.656525 1624.271362,444.603363 
	C1623.882080,457.086517 1624.056030,469.590912 1624.201782,482.084503 
	C1624.238281,485.215240 1623.478149,486.408783 1620.085693,486.403015 
	C1563.940308,486.307709 1507.794800,486.304840 1451.649414,486.406494 
	C1447.995972,486.413116 1447.262939,485.045044 1447.266357,481.740143 
	C1447.340088,411.433380 1447.344727,341.126495 1447.254028,270.819763 
	C1447.249512,267.307312 1448.320068,266.308014 1451.789673,266.313995 
	C1506.435669,266.408264 1561.081787,266.413422 1615.727661,266.307678 
	C1619.352417,266.300659 1620.139038,267.553467 1620.093262,270.907898 
	C1619.920288,283.567444 1619.855957,296.234253 1620.120605,308.890625 
	C1620.205688,312.958710 1619.234131,314.222717 1614.968140,314.194885 
	C1585.147339,314.000366 1555.324585,314.092102 1525.003418,314.092194 
z"/>
<path fill="#212121" opacity="1.000000" stroke="none" 
	d="
M2167.695312,75.708862 
	C2157.346436,86.834702 2152.718750,99.912857 2151.988525,114.527321 
	C2151.418213,125.948761 2152.176514,137.219025 2156.983154,147.810837 
	C2167.175537,170.269913 2185.474609,180.899231 2209.318115,182.924362 
	C2220.742676,183.894684 2231.870850,182.058258 2242.664551,178.011368 
	C2246.451904,176.591415 2248.156738,174.655975 2248.094482,170.365555 
	C2247.858154,154.037827 2248.137451,137.702713 2247.913574,121.374634 
	C2247.849609,116.712196 2249.118896,114.877518 2254.067627,114.970558 
	C2268.560791,115.243027 2283.063232,115.174377 2297.559326,115.002159 
	C2301.675537,114.953255 2303.080566,116.365623 2303.060303,120.503387 
	C2302.926514,147.499130 2302.933838,174.496140 2303.062744,201.491943 
	C2303.080078,205.112915 2301.776123,207.287552 2298.804443,209.208282 
	C2278.692139,222.207626 2256.517822,229.665543 2232.988525,232.748932 
	C2205.632324,236.333832 2178.712402,234.456909 2153.369629,222.292175 
	C2117.385742,205.019714 2096.017578,176.655853 2090.087646,137.081497 
	C2087.151123,117.484741 2088.857910,98.139343 2095.829346,79.526978 
	C2107.417969,48.588310 2128.886719,26.847486 2159.658203,15.314925 
	C2198.723389,0.674020 2237.684570,2.025527 2275.590820,19.973368 
	C2286.801758,25.281588 2296.359619,33.146671 2304.847656,42.268860 
	C2307.270508,44.872784 2306.936035,46.709763 2304.457031,48.925537 
	C2294.281738,58.020054 2284.199463,67.218628 2274.055176,76.348053 
	C2268.914795,80.974220 2268.832764,81.004951 2263.789551,76.417671 
	C2244.266602,58.659855 2221.492676,53.238865 2196.084473,59.187504 
	C2185.245117,61.725189 2175.519531,66.911011 2167.695312,75.708862 
z"/>
<path fill="#212121" opacity="1.000000" stroke="none" 
	d="
M644.000000,181.998627 
	C663.996948,181.999023 683.495056,182.111542 702.990051,181.916290 
	C707.524536,181.870880 709.150879,183.250748 709.051819,187.890869 
	C708.792236,200.050125 708.808167,212.221588 709.045227,224.381744 
	C709.132202,228.842148 707.476379,230.070206 703.203552,230.061783 
	C648.712219,229.954285 594.220520,229.953094 539.729187,230.063599 
	C535.425049,230.072327 533.918701,228.788193 533.925659,224.362976 
	C534.034546,154.873932 534.039551,85.384613 533.916992,15.895617 
	C533.908813,11.238368 535.481018,9.931766 539.983093,9.941969 
	C592.974548,10.062078 645.966614,10.060733 698.958069,9.943915 
	C703.425232,9.934068 705.166870,11.168350 705.061340,15.873213 
	C704.788696,28.031881 704.812134,40.203815 705.051453,52.363876 
	C705.139587,56.843933 703.447327,58.045746 699.192810,58.029072 
	C666.198486,57.899761 633.203369,57.955040 600.208496,57.961899 
	C593.091370,57.963379 592.979370,57.981537 593.101807,65.215904 
	C593.239929,73.369080 592.723694,81.519966 593.503418,89.684402 
	C593.917114,94.016159 595.767822,95.147224 599.878174,95.126640 
	C628.206360,94.984756 656.535645,95.049240 684.864563,95.055840 
	C691.832764,95.057465 691.477234,95.060631 691.261780,101.858376 
	C690.918823,112.679283 691.105652,123.516945 691.065125,134.347504 
	C691.038574,141.436584 690.612061,141.895142 683.318420,141.900421 
	C655.489441,141.920547 627.660400,141.903198 599.831421,141.914017 
	C593.156494,141.916611 593.091248,141.984833 593.077576,148.566788 
	C593.058228,157.898621 593.218811,167.233795 593.008667,176.560928 
	C592.915955,180.677673 594.364502,182.116257 598.507996,182.066757 
	C613.503479,181.887604 628.502380,181.997696 644.000000,181.998627 
z"/>
<path fill="#6200E9" opacity="1.000000" stroke="none" 
	d="
M1048.431396,371.555359 
	C1025.127930,345.263824 1032.022339,299.460510 1063.992676,279.279144 
	C1077.823853,270.548187 1092.856567,265.939850 1109.033813,263.815979 
	C1122.823608,262.005554 1136.498657,261.653839 1150.281128,262.954468 
	C1170.557129,264.867889 1189.984009,269.774323 1208.246582,279.028717 
	C1211.432861,280.643280 1212.001221,282.009216 1210.515259,285.402557 
	C1205.085327,297.801941 1199.940063,310.331390 1194.971069,322.923798 
	C1193.572754,326.467682 1192.267578,326.909271 1188.888672,325.172394 
	C1170.071167,315.499817 1150.107788,310.068909 1128.846924,310.271973 
	C1121.405762,310.343018 1114.026001,311.485901 1107.125000,314.555176 
	C1100.694336,317.415283 1096.514404,322.241058 1096.242920,329.415619 
	C1095.973633,336.530151 1100.750000,340.341248 1106.513428,343.408295 
	C1114.351807,347.579315 1122.990234,348.941620 1131.426270,351.063843 
	C1149.919800,355.716095 1168.925049,358.563507 1186.364380,366.918243 
	C1199.829956,373.369202 1211.307617,382.087311 1216.787964,396.410919 
	C1227.252686,423.761841 1219.604858,454.767914 1192.660767,473.024841 
	C1177.405884,483.361328 1160.168701,487.698212 1142.198486,489.888306 
	C1123.476807,492.169983 1104.745239,491.220337 1086.392822,487.701050 
	C1068.870972,484.340973 1051.634155,479.375061 1036.008057,470.056091 
	C1032.192261,467.780579 1031.034790,465.987000 1033.076172,461.626373 
	C1038.987671,448.998627 1044.472412,436.167786 1049.943726,423.339539 
	C1051.227051,420.330872 1052.657471,421.857758 1054.107666,422.720001 
	C1062.807129,427.892548 1071.907104,432.089935 1081.514160,435.384216 
	C1090.150879,438.345703 1099.017822,440.627686 1107.923462,441.671478 
	C1120.752075,443.175110 1133.826904,443.782898 1146.520508,439.895813 
	C1151.899780,438.248535 1156.900024,435.770020 1158.915039,430.046967 
	C1161.889038,421.600159 1158.472412,414.827332 1149.700562,410.748993 
	C1142.313110,407.314240 1134.557251,405.001862 1126.642090,403.269012 
	C1110.667603,399.771851 1094.703857,396.276123 1079.263184,390.757111 
	C1067.702759,386.625092 1057.260132,380.727875 1048.431396,371.555359 
z"/>
<path fill="#6200E9" opacity="1.000000" stroke="none" 
	d="
M888.475159,479.744263 
	C888.474976,456.944031 888.415344,434.620911 888.531982,412.298737 
	C888.551880,408.489288 887.702393,405.234619 885.726501,401.951599 
	C859.633484,358.598206 833.636597,315.186951 807.647156,271.771301 
	C806.823853,270.395935 805.067383,268.927277 805.780701,267.410919 
	C806.703064,265.450226 809.051758,266.436035 810.748596,266.429291 
	C828.906372,266.356750 847.065552,266.474152 865.221924,266.294678 
	C868.681213,266.260468 870.557800,267.415619 872.298096,270.355591 
	C887.884277,296.686798 903.622131,322.928314 919.350586,349.175079 
	C920.183777,350.565552 920.705017,352.246338 922.705444,353.344818 
	C927.807739,344.829224 932.914062,336.330200 937.997742,327.817657 
	C949.428101,308.677765 960.893921,289.558716 972.220947,270.357819 
	C973.929382,267.461823 975.858154,266.255310 979.335327,266.294525 
	C996.158569,266.484222 1012.986267,266.482605 1029.809814,266.307892 
	C1034.277344,266.261505 1034.503174,267.290436 1032.338135,270.899902 
	C1005.897522,314.980621 979.586304,359.138947 953.163513,403.230347 
	C951.556091,405.912598 950.829590,408.537567 950.841858,411.654785 
	C950.933472,434.976776 950.810608,458.299805 950.973694,481.621002 
	C950.999634,485.326447 950.036926,486.467438 946.248169,486.424347 
	C929.091858,486.229126 911.928650,486.152069 894.775513,486.457825 
	C889.847717,486.545685 887.499146,485.427124 888.475159,479.744263 
z"/>
<path fill="#6200E9" opacity="1.000000" stroke="none" 
	d="
M1945.107788,410.342529 
	C1945.564087,406.994720 1944.007080,404.793976 1942.634644,402.504761 
	C1916.527588,358.956665 1890.425415,315.405640 1864.365234,271.829590 
	C1863.475586,270.342072 1861.386841,268.781006 1862.385986,267.103302 
	C1863.361328,265.465668 1865.772461,266.419312 1867.526489,266.413513 
	C1885.351929,266.354523 1903.178833,266.492737 1921.002319,266.293152 
	C1924.963745,266.248810 1927.214722,267.430023 1929.280396,270.935181 
	C1944.656128,297.025421 1960.277222,322.971191 1975.826782,348.958984 
	C1976.673096,350.373352 1977.568115,351.758484 1978.450073,353.172485 
	C1980.662476,352.469849 1981.079834,350.490601 1981.970581,349.005188 
	C1997.636841,322.878754 2013.311401,296.756897 2028.806396,270.528961 
	C2030.663452,267.385651 2032.683838,266.250092 2036.305420,266.292328 
	C2052.796143,266.484741 2069.290283,266.359589 2085.783203,266.403931 
	C2087.374268,266.408203 2089.091797,265.889221 2090.985107,267.276886 
	C2084.444824,278.244354 2077.921631,289.197388 2071.385010,300.142670 
	C2050.565674,335.003693 2029.758423,369.871826 2008.881104,404.698029 
	C2007.525024,406.960052 2007.073853,409.214294 2007.079590,411.782043 
	C2007.131348,434.938599 2006.994873,458.096436 2007.213135,481.251068 
	C2007.253296,485.517609 2005.970093,486.486542 2001.897705,486.433746 
	C1984.741333,486.211212 1967.577515,486.164917 1950.423096,486.455414 
	C1945.808716,486.533600 1944.978638,484.984680 1945.014160,480.768951 
	C1945.210693,457.447479 1945.108154,434.123474 1945.107788,410.342529 
z"/>
<path fill="#6200EA" opacity="1.000000" stroke="none" 
	d="
M1310.002686,486.337341 
	C1305.339111,486.332092 1301.173950,486.277740 1297.010742,486.342072 
	C1294.917358,486.374451 1293.929688,485.571320 1294.081177,483.408722 
	C1294.174194,482.082855 1294.090942,480.744781 1294.090942,479.412201 
	C1294.090454,426.774323 1294.032104,374.136292 1294.194580,321.498932 
	C1294.208496,316.969757 1293.093384,315.678589 1288.488037,315.743286 
	C1269.335693,316.012360 1250.175903,315.736969 1231.022217,315.952057 
	C1226.980591,315.997437 1226.001587,314.748413 1226.065918,310.885040 
	C1226.287476,297.562653 1226.251221,284.233124 1226.082153,270.909210 
	C1226.039185,267.521637 1226.904053,266.305664 1230.494019,266.311157 
	C1293.459473,266.407684 1356.424927,266.405518 1419.390381,266.314423 
	C1422.878052,266.309387 1423.939087,267.334412 1423.891602,270.831329 
	C1423.708252,284.321472 1423.666870,297.818268 1423.910645,311.306488 
	C1423.981567,315.238556 1422.586182,315.960693 1419.017700,315.931366 
	C1399.696289,315.772675 1380.371582,315.969086 1361.051025,315.764160 
	C1357.057617,315.721802 1356.079346,316.913147 1356.088379,320.802460 
	C1356.211670,374.106354 1356.107544,427.410797 1356.281982,480.714386 
	C1356.297241,485.374756 1354.971558,486.535431 1350.477173,486.439178 
	C1337.157471,486.153992 1323.827637,486.337219 1310.002686,486.337341 
z"/>
<path fill="#7722F3" opacity="1.000000" stroke="none" 
	d="
M23.931038,279.392334 
	C22.822313,273.753845 21.653685,268.400543 21.998142,262.909790 
	C22.214491,259.461151 21.040581,257.807831 17.160152,257.940155 
	C13.254822,258.073334 7.899395,259.836761 5.769950,257.150146 
	C3.794234,254.657471 5.038005,249.545029 5.016136,245.585281 
	C4.964014,236.148041 5.000252,236.147827 14.266972,236.146286 
	C21.873569,236.145020 21.948208,236.085861 21.995346,228.480011 
	C22.026211,223.499832 22.827255,218.627731 24.053183,213.398163 
	C25.207682,211.569000 26.632097,210.882782 28.385580,210.804474 
	C36.457016,210.444016 44.528687,210.432739 52.598885,210.816040 
	C53.928581,210.879181 55.224972,211.156067 56.495651,212.631897 
	C56.103252,219.548111 55.570526,226.124725 54.543976,232.623367 
	C54.135887,235.206802 54.197384,236.215591 57.155903,236.190201 
	C70.154320,236.078644 83.154419,236.106842 96.153404,236.176727 
	C98.283058,236.188171 98.798447,235.465973 99.088264,233.345749 
	C100.508316,222.957199 101.930946,212.544647 105.975693,202.342712 
	C106.874725,201.267075 107.750511,200.696335 108.763763,200.692825 
	C118.549004,200.658951 128.340942,200.160034 138.114746,201.032150 
	C138.778580,201.091385 139.375214,201.426224 140.254852,202.104156 
	C142.651764,204.884735 141.649963,207.465759 140.647766,209.921692 
	C138.434540,215.345322 137.211349,221.037903 135.977310,226.716064 
	C134.845642,231.923248 136.115189,233.483734 141.390778,233.564133 
	C149.203568,233.683167 157.021011,233.494873 164.832108,233.633453 
	C169.229675,233.711472 171.528763,231.821091 172.596527,227.605804 
	C174.785477,218.964294 178.769989,211.145782 184.120956,204.013992 
	C185.429489,202.269974 186.579910,200.393600 189.550980,200.385468 
	C223.199142,200.762527 256.407745,200.483078 289.615723,200.580505 
	C292.079346,200.587738 294.620972,200.173157 297.340393,201.741379 
	C305.659271,210.779175 310.324219,221.240036 312.766937,232.610016 
	C313.445648,235.769211 314.543793,236.206284 317.194397,236.183136 
	C327.678070,236.091660 338.162964,236.149933 348.647430,236.144699 
	C354.415283,236.141815 355.027008,235.559082 353.931946,229.976395 
	C351.683960,218.516312 348.639221,207.285797 343.001221,196.952820 
	C341.465454,194.138138 340.776306,192.626877 344.960449,191.368011 
	C354.745911,188.423874 361.442566,181.400635 366.818970,172.329788 
	C374.438324,184.099930 379.445892,196.486343 382.951385,209.496490 
	C385.002258,217.108154 386.890198,224.791870 387.003906,232.752182 
	C387.040558,235.317032 388.222382,236.191132 390.721100,236.176682 
	C403.368561,236.103500 416.018036,236.044235 428.663666,236.213303 
	C431.828644,236.255600 432.286865,234.837418 432.005310,232.315781 
	C431.111298,224.308762 430.235107,216.300858 428.430634,208.428894 
	C428.174072,207.309738 428.102325,206.148224 427.928284,204.592682 
	C427.723602,202.047058 428.689026,200.327835 430.725891,200.183929 
	C440.251740,199.510849 449.807617,198.534256 459.278839,200.770966 
	C459.579956,200.842056 459.830719,201.126419 460.469849,201.657349 
	C463.107208,212.246689 464.343658,222.638809 464.916656,233.093430 
	C465.065186,235.803436 465.996582,236.465866 468.449158,236.387329 
	C472.596924,236.254501 476.755127,236.452621 480.903229,236.325287 
	C483.286224,236.252151 484.293488,237.133606 484.009430,239.508926 
	C483.931122,240.163788 484.010162,240.836365 483.998627,241.500488 
	C483.906677,246.793045 485.729919,253.504288 483.166626,256.972443 
	C480.685364,260.329529 473.571198,257.923340 468.504669,257.975800 
	C465.550690,258.006378 464.956818,259.065552 464.939911,261.762207 
	C464.890350,269.675446 463.874146,277.503235 461.970215,285.613068 
	C460.792877,287.430054 459.367676,288.124115 457.610107,288.196503 
	C449.359192,288.536102 441.108734,288.607574 432.860016,288.143951 
	C431.678223,288.077515 430.588837,287.727905 429.457642,286.412964 
	C429.730560,278.145172 431.867188,270.493561 432.081604,262.568146 
	C432.175385,259.102386 431.212006,258.046814 427.686646,258.110901 
	C415.893677,258.325470 404.089020,258.393188 392.300568,258.078308 
	C388.408051,257.974365 387.319855,259.788879 387.091309,262.869293 
	C386.883606,265.669556 387.104828,268.506409 385.916351,271.592224 
	C384.688995,273.637726 383.019623,274.209808 381.127502,274.235809 
	C372.090088,274.360107 363.044861,274.945465 353.618958,273.612427 
	C350.096039,271.520966 350.928192,268.554810 351.164856,265.785797 
	C351.416473,262.842712 350.410217,260.578552 347.260010,260.602112 
	C335.979706,260.686371 324.650787,259.305481 312.994568,261.617523 
	C302.338989,263.052490 292.089569,262.380005 281.432526,262.074402 
	C279.253632,261.544403 277.638397,260.682007 275.789673,260.393341 
	C269.537811,259.417084 268.866028,258.643188 268.667694,252.472992 
	C268.539398,248.481049 268.586121,244.485703 268.687256,240.491287 
	C268.763916,237.461227 269.468048,234.913376 272.779816,233.834015 
	C275.536499,232.935562 275.245361,231.024063 274.001343,229.087372 
	C270.715729,223.972244 266.503784,219.759949 261.290619,216.612244 
	C259.114197,215.298141 257.084106,215.233932 256.170837,218.154877 
	C255.132202,221.476807 252.601776,222.227371 249.561218,222.309647 
	C245.566895,222.417709 241.573502,222.384888 237.579102,222.351791 
	C234.089294,222.322891 230.967834,221.890640 229.613190,217.859482 
	C228.798538,215.435272 226.790695,215.891083 225.057632,216.845490 
	C219.832748,219.722870 215.761703,223.801102 212.861725,229.016159 
	C211.558594,231.359573 211.929047,233.107071 214.715012,234.050339 
	C217.281189,234.919205 218.120865,237.004990 218.243073,239.528061 
	C218.468674,244.186615 218.507095,248.849411 218.279114,253.503021 
	C218.025085,258.687866 216.949066,259.768372 211.671173,260.306976 
	C209.994720,260.478058 208.375565,260.638092 206.560150,261.760773 
	C195.875366,262.956604 185.541565,262.181732 174.789124,262.417816 
	C163.331375,258.783722 151.967529,260.846375 140.755112,260.522339 
	C136.391922,260.396210 135.345001,261.908356 135.713135,266.525940 
	C135.863724,268.414551 136.047379,270.171356 134.253860,271.922119 
	C130.298920,273.900116 126.444603,273.431000 122.688606,273.382660 
	C115.942703,273.295807 109.168892,273.985168 102.024338,272.682098 
	C98.750725,272.089508 98.105011,270.011078 97.653290,267.555206 
	C96.509193,261.335114 95.461166,260.485168 89.076172,260.434448 
	C80.789558,260.368591 72.501610,260.347565 64.215416,260.443420 
	C58.302639,260.511810 57.023720,262.139648 57.691322,268.130646 
	C58.123005,272.004486 59.473217,275.928070 56.926258,279.979248 
	C45.786522,281.825195 35.037510,282.828766 23.931038,279.392334 
z"/>
<path fill="#212121" opacity="1.000000" stroke="none" 
	d="
M1801.049927,15.226591 
	C1801.053467,84.642090 1801.055420,153.584061 1801.052490,222.526047 
	C1801.052124,229.979385 1801.039185,229.989517 1793.647461,229.992294 
	C1777.327881,229.998398 1761.006836,229.870667 1744.689697,230.073563 
	C1740.270386,230.128510 1738.973022,228.573502 1738.979126,224.269989 
	C1739.079224,154.828583 1739.083618,85.386917 1738.971924,15.945534 
	C1738.964600,11.396838 1740.360840,9.855487 1744.971313,9.916595 
	C1761.787476,10.139478 1778.608643,10.050554 1795.427368,9.968071 
	C1798.871704,9.951180 1801.490479,10.428503 1801.049927,15.226591 
z"/>
<path fill="#9128EC" opacity="1.000000" stroke="none" 
	d="
M322.985840,367.560486 
	C306.267273,379.673462 287.670013,386.871246 267.475433,390.041901 
	C266.504547,390.194305 265.580322,390.770050 264.616943,390.821411 
	C261.158813,391.005707 256.666504,390.260590 254.718872,392.689453 
	C252.619324,395.307800 254.115280,399.741425 254.081009,403.377106 
	C253.989944,413.036224 254.170090,422.699097 253.982819,432.355438 
	C253.922852,435.448364 254.763672,436.147858 257.887512,436.131836 
	C264.713531,436.096893 271.295258,434.421234 278.013885,433.740692 
	C279.617188,433.578278 280.202301,433.697144 279.953400,435.168854 
	C278.072083,446.292511 282.365814,455.586761 288.660675,464.616516 
	C283.081329,466.686005 277.251038,467.239044 271.547119,467.856903 
	C266.815277,468.369507 262.092438,469.677307 257.251556,469.007935 
	C254.430038,468.617767 253.947113,470.166138 254.027771,472.562225 
	C254.162201,476.554932 253.950195,480.559845 254.104736,484.551086 
	C254.199432,486.996704 253.663879,488.175812 250.861298,488.062256 
	C245.706650,487.853363 240.532166,487.861755 235.376556,488.058075 
	C232.568268,488.164948 232.025009,486.943604 232.113068,484.503143 
	C232.257111,480.511169 232.051468,476.506836 232.184311,472.514069 
	C232.264435,470.105743 231.717255,469.097870 228.945251,468.928894 
	C181.468506,466.034271 139.491409,449.145905 102.599319,419.221680 
	C83.211578,403.495697 67.148254,384.940582 53.989510,363.384735 
	C54.659702,359.822174 57.319103,359.748779 59.790806,359.716095 
	C69.557060,359.586823 79.327332,359.262726 89.513512,359.843567 
	C93.701500,358.773346 95.323174,361.624634 97.179352,363.899078 
	C111.311935,381.216003 127.783813,395.810455 146.940887,407.414978 
	C170.557907,421.721130 196.104141,430.153687 223.477142,433.245331 
	C227.929901,433.748260 229.455399,432.629303 229.540192,428.239349 
	C229.726791,418.577606 229.633408,408.911835 229.582230,399.247559 
	C229.563217,395.655182 227.931274,393.831573 224.259247,393.358917 
	C205.365219,390.927032 187.587097,384.979095 171.036179,375.590973 
	C167.733170,373.717468 162.722595,372.720001 163.696716,366.636841 
	C165.994370,364.362122 168.602753,364.652649 171.041031,364.646759 
	C219.092834,364.530609 267.144836,364.527069 315.196564,364.658997 
	C317.902893,364.666412 320.998718,364.094818 322.985840,367.560486 
z"/>
<path fill="#8527EF" opacity="1.000000" stroke="none" 
	d="
M323.434265,367.923157 
	C320.944519,366.979370 318.613739,366.996429 316.276703,366.996704 
	C267.535004,367.001862 218.793320,366.998352 170.051636,367.008759 
	C168.236008,367.009155 166.377228,366.784119 164.310577,367.892303 
	C161.695206,369.661133 159.823380,368.441162 158.055832,367.171936 
	C140.301880,354.423553 125.907715,338.626373 115.163460,319.570618 
	C113.799416,317.151367 112.351997,314.508728 114.879944,311.402100 
	C116.038414,310.201233 117.174759,309.901947 118.334740,309.873413 
	C128.900681,309.613068 139.475388,308.907715 150.436691,310.400452 
	C154.264114,310.340546 155.663025,313.022675 157.385178,315.207520 
	C174.160721,336.490173 195.934723,349.569550 222.453720,354.827454 
	C228.623245,356.050659 229.551315,355.263000 229.600525,349.026459 
	C229.660965,341.365814 229.451431,333.699341 229.674713,326.045380 
	C229.811005,321.373444 227.892883,319.147339 223.395355,318.052460 
	C215.732529,316.187073 208.782440,312.525513 202.170624,308.273254 
	C199.918762,306.824982 197.703232,305.222321 198.083542,301.600830 
	C199.452637,298.890259 201.701843,298.747375 203.855560,298.727264 
	C230.338547,298.480103 256.822021,298.466248 283.305054,298.730865 
	C284.626251,298.744080 285.972198,298.872314 287.555237,299.753296 
	C290.224426,303.126190 288.589813,305.242584 286.088013,307.100555 
	C279.065826,312.315613 271.227020,315.863495 262.871307,318.304443 
	C256.940887,320.036926 256.451538,320.528168 256.401978,326.503906 
	C256.338562,334.148468 256.322510,341.794281 256.407867,349.438507 
	C256.470642,355.060486 257.545685,355.951630 262.966522,354.959900 
	C289.386749,350.126434 310.899200,336.978729 328.102570,316.506073 
	C329.871002,314.401581 331.299652,311.732269 334.984985,311.429443 
	C345.870636,309.884857 356.365662,310.662201 366.844360,310.788086 
	C368.874451,310.812469 370.902679,311.204468 371.619263,314.166992 
	C359.869293,336.108490 344.204956,354.115387 323.434265,367.923157 
z"/>
<path fill="#6A1CF6" opacity="1.000000" stroke="none" 
	d="
M297.663055,201.691452 
	C293.832306,202.902664 289.869659,203.028671 285.869385,203.022629 
	C257.124420,202.979202 228.379364,202.984100 199.634399,203.020004 
	C196.294571,203.024170 192.999008,202.853912 189.326080,202.008621 
	C187.506012,199.386032 189.440292,197.923904 190.862122,196.373047 
	C199.635162,186.803986 210.401459,180.437805 222.795624,176.784058 
	C229.260208,174.878311 229.581375,174.600815 229.614319,167.837097 
	C229.650818,160.345154 229.690201,152.852295 229.597778,145.361053 
	C229.531342,139.975662 228.455170,139.020920 223.353775,139.993179 
	C204.501968,143.586060 187.727661,151.468781 172.913559,163.796265 
	C161.042496,173.674728 152.272049,185.808044 145.045288,199.256027 
	C143.988098,201.223312 143.469406,203.788284 140.318802,204.107361 
	C135.847092,202.090378 131.484421,203.297195 127.233673,203.020828 
	C120.480141,202.581711 113.656349,203.818207 106.550880,202.097015 
	C110.713066,185.586884 119.187263,171.208221 129.625229,157.972321 
	C137.343033,148.185745 146.141205,139.389038 156.575089,131.898209 
	C161.306656,130.714661 165.774338,130.549576 170.282364,130.554031 
	C210.239410,130.593460 250.196625,130.521225 290.153412,130.646561 
	C293.463654,130.656937 297.281128,129.571869 299.950989,133.572296 
	C297.795349,138.382050 295.341583,142.665909 294.727478,148.074875 
	C284.755554,143.195282 274.619965,139.609161 263.951538,137.454437 
	C261.174347,136.893524 258.342896,137.676010 255.631561,136.417816 
	C253.646027,135.496429 254.053223,137.469986 254.049652,138.410690 
	C254.004196,150.409607 254.099121,162.409668 253.961853,174.407181 
	C253.928162,177.352509 255.946106,177.561295 257.774597,177.929718 
	C273.763824,181.151535 286.876740,189.207825 297.663055,201.691452 
z"/>
<path fill="#5B0DFA" opacity="1.000000" stroke="none" 
	d="
M126.806160,58.686817 
	C148.976715,44.456928 172.726456,35.131451 198.129364,29.995161 
	C208.271515,27.944496 218.433975,25.890793 228.848297,26.049486 
	C231.648163,26.092148 232.221695,24.881889 232.113266,22.466356 
	C231.978973,19.475315 232.287186,16.455847 232.029129,13.481202 
	C231.738968,10.136390 232.621201,8.653431 236.322159,8.923199 
	C240.794067,9.249164 245.326355,9.251493 249.797760,8.922122 
	C253.473251,8.651380 254.309509,10.077083 254.102539,13.440518 
	C253.868500,17.244053 252.928284,21.793682 254.589935,24.712458 
	C256.419617,27.926416 261.304474,25.579573 264.824554,26.029726 
	C285.587952,28.685005 305.908600,33.078209 325.375580,40.965298 
	C340.663452,47.159206 355.245117,54.672157 368.946472,64.454918 
	C369.413940,67.659302 367.223114,67.856438 365.251007,68.150459 
	C362.773987,68.519768 360.263092,68.433960 357.765259,68.415115 
	C340.468353,68.284630 323.165405,68.819550 305.400696,68.068771 
	C294.344666,65.235062 283.819702,61.981030 272.893066,60.557686 
	C259.258514,58.781590 245.657166,57.130116 231.784729,58.627003 
	C223.096313,59.564503 214.399246,60.251518 205.409042,61.902809 
	C203.946182,61.094711 202.779510,61.350117 201.630722,61.452374 
	C179.290268,63.440956 156.902603,62.069138 134.538177,62.310478 
	C131.684326,62.341278 127.926636,63.451714 126.806160,58.686817 
z"/>
<path fill="#6216F8" opacity="1.000000" stroke="none" 
	d="
M300.413025,133.893280 
	C297.452728,132.731873 294.591705,133.006042 291.774567,133.005524 
	C249.347336,132.997772 206.920090,133.006424 164.492874,132.982620 
	C162.190430,132.981323 159.819153,133.393372 157.266327,132.053177 
	C169.899567,120.989037 184.970200,114.109238 200.918289,109.101967 
	C209.371033,106.448036 218.012573,104.346184 226.970200,103.924332 
	C230.390427,103.763260 232.461075,102.430283 232.158813,98.141151 
	C231.691681,91.512062 232.113876,84.824303 231.999771,78.164146 
	C231.960297,75.859695 232.591949,74.888756 235.062866,74.958328 
	C240.388351,75.108292 245.724670,75.121132 251.049118,74.953613 
	C253.609970,74.873047 254.073792,75.982597 254.037888,78.211006 
	C253.935913,84.538300 254.485916,90.914711 253.873535,97.183304 
	C253.355530,102.485710 255.922653,103.728439 260.176025,103.983620 
	C271.095428,104.638756 281.522400,107.570900 291.772461,111.105453 
	C299.365173,113.723671 306.715424,116.981270 314.094910,121.300346 
	C308.710022,124.809174 303.957703,128.500610 300.413025,133.893280 
z"/>
<path fill="#6013F8" opacity="1.000000" stroke="none" 
	d="
M305.131012,68.485245 
	C306.569763,65.594421 309.209320,66.014275 311.667053,66.011330 
	C328.469116,65.991203 345.271210,66.012215 362.073212,65.984985 
	C364.210754,65.981514 366.417358,66.346474 368.781097,64.981773 
	C380.190552,71.177414 389.484009,79.854370 398.622589,88.624588 
	C409.231628,98.805946 418.797974,109.948944 426.990479,122.626083 
	C426.667847,124.776749 425.505005,125.957848 423.650177,126.007881 
	C412.062073,126.320526 400.449982,127.486725 388.436584,125.169853 
	C380.994446,117.999146 374.376709,110.583313 366.730530,104.110786 
	C348.383453,88.579933 328.138489,76.498573 305.131012,68.485245 
z"/>
<path fill="#8426EF" opacity="1.000000" stroke="none" 
	d="
M91.559540,359.914307 
	C89.589180,362.242889 87.195206,361.986908 84.892365,361.991791 
	C76.613014,362.009338 68.333214,361.959076 60.054512,362.035248 
	C58.260567,362.051727 56.470470,362.486847 54.285534,362.887634 
	C37.801792,337.553192 27.911287,309.808685 23.613140,279.571198 
	C34.300930,279.101562 45.107010,279.051147 56.371021,279.001129 
	C59.503609,279.726105 59.549736,282.217621 59.988209,284.178284 
	C65.582710,309.194000 74.914986,332.592377 89.657219,353.700836 
	C90.866051,355.431702 92.320740,357.172211 91.559540,359.914307 
z"/>
<path fill="#8727EE" opacity="1.000000" stroke="none" 
	d="
M429.037598,286.374573 
	C439.752228,286.002960 450.339020,286.002319 461.384521,286.002197 
	C460.421692,297.574982 457.273926,308.733887 453.554108,319.731171 
	C447.690582,337.066010 439.502594,353.292419 429.422852,368.890015 
	C427.478119,369.944855 425.704773,370.318604 423.854492,370.343292 
	C414.398315,370.469543 404.941467,370.520325 395.486542,370.299408 
	C393.689545,370.257446 391.789276,370.303284 390.131775,368.383911 
	C405.176239,348.415375 417.343201,327.201691 424.350037,303.249481 
	C425.952332,297.772247 427.394104,292.248108 429.037598,286.374573 
z"/>
<path fill="#6A1CF6" opacity="1.000000" stroke="none" 
	d="
M388.089935,125.419983 
	C390.001923,123.596642 392.385895,124.092514 394.668091,124.003113 
	C405.215973,123.589920 415.802887,124.859161 426.716919,123.110229 
	C442.204926,144.495438 452.542633,168.186188 459.003235,193.626434 
	C459.645905,196.157013 460.286804,198.688049 460.881653,201.611084 
	C452.038116,202.002716 443.241394,201.984329 434.444824,202.014450 
	C432.322479,202.021713 430.065247,201.661713 428.157806,203.865433 
	C423.447205,189.279190 418.695923,174.521561 411.402771,160.657349 
	C404.849152,148.198868 396.990845,136.679886 388.089935,125.419983 
z"/>
<path fill="#9028EC" opacity="1.000000" stroke="none" 
	d="
M389.577454,368.094055 
	C400.213531,367.972748 410.544403,368.000366 420.875275,367.990601 
	C423.386200,367.988220 425.873688,368.064789 428.700500,368.949524 
	C423.037933,379.466705 415.325928,388.645996 407.122711,397.402039 
	C392.973907,412.504303 377.609070,426.186371 359.711426,436.795685 
	C358.609192,437.449066 357.458130,438.020081 356.176208,438.712341 
	C355.906677,426.665222 350.882324,417.230255 341.766235,409.378448 
	C359.886292,397.977509 375.825714,384.521973 389.577454,368.094055 
z"/>
<path fill="#5E12F8" opacity="1.000000" stroke="none" 
	d="
M126.671059,58.299164 
	C128.565384,60.774761 131.120453,59.961723 133.322510,59.967201 
	C155.037170,60.021206 176.752060,59.982002 198.466736,60.029518 
	C200.543091,60.034058 202.828766,59.372028 204.795151,61.516987 
	C187.537781,65.953369 170.628677,71.609184 154.744522,80.060097 
	C138.279419,88.820099 123.343185,99.693520 110.248764,112.987160 
	C107.842613,115.429916 106.684280,115.555145 105.063950,112.419380 
	C100.805779,104.178734 93.501587,99.243668 85.131699,96.362061 
	C80.848358,94.887375 82.411507,94.121666 84.276802,92.197968 
	C96.901352,79.178192 111.148674,68.183830 126.671059,58.299164 
z"/>
<path fill="#9429EB" opacity="1.000000" stroke="none" 
	d="
M329.479950,414.284271 
	C341.400574,420.551086 346.295258,430.355225 344.913666,443.084808 
	C343.813232,453.223602 337.790955,460.328674 328.781738,464.593048 
	C312.132141,472.473938 292.256805,459.911774 290.779297,441.720490 
	C289.116974,421.253876 309.336487,406.120331 329.479950,414.284271 
z"/>
<path fill="#6619F7" opacity="1.000000" stroke="none" 
	d="
M70.351135,105.051964 
	C83.089043,105.070953 92.596680,110.161804 97.705276,121.493378 
	C102.458313,132.036255 100.809074,142.240448 92.973694,150.848022 
	C85.322098,159.253708 75.536919,162.192245 64.682213,158.713882 
	C54.374355,155.410721 47.847282,148.195267 45.973095,137.163925 
	C43.058361,120.007942 55.536972,107.245209 68.048782,105.734062 
	C68.689095,105.656723 69.296448,105.306564 70.351135,105.051964 
z"/>
<path fill="#691BF6" opacity="1.000000" stroke="none" 
	d="
M358.889221,162.546814 
	C352.455688,180.402176 337.746826,185.175476 323.809357,180.881516 
	C310.348419,176.734390 304.077087,163.786835 305.167603,152.542206 
	C306.508514,138.715576 317.903107,128.671204 330.479156,127.871468 
	C345.520630,126.914955 357.505859,139.187180 359.230927,149.961685 
	C359.910339,154.205154 359.760223,158.099243 358.889221,162.546814 
z"/>
<path fill="#6E1EF5" opacity="1.000000" stroke="none" 
	d="
M56.929039,212.612366 
	C46.250088,213.002289 35.666222,213.001831 24.624279,213.001862 
	C25.156933,200.823318 28.683060,189.197723 32.294151,177.643921 
	C34.682224,170.003235 37.553776,162.474670 41.403324,155.030029 
	C47.928223,163.698441 56.498398,168.686569 66.926346,170.641830 
	C68.094696,170.860916 70.315041,170.580353 69.080688,173.365860 
	C63.553391,185.839218 60.051941,198.961685 56.929039,212.612366 
z"/>
<path fill="#8125F0" opacity="1.000000" stroke="none" 
	d="
M371.852173,314.329590 
	C369.809235,313.001801 367.497253,312.995209 365.168304,312.997589 
	C355.111755,313.007965 345.055237,313.001373 334.534424,313.001312 
	C332.355957,310.719727 333.930206,308.910126 335.050720,307.169647 
	C341.181152,297.647705 345.648712,287.392303 348.871796,276.559570 
	C349.423645,274.704926 349.790527,272.614288 352.427734,271.895020 
	C363.514465,271.955841 374.216492,271.978241 385.376648,272.001160 
	C383.455658,286.739563 378.621033,300.668243 371.852173,314.329590 
z"/>
<path fill="#100026" opacity="1.000000" stroke="none" 
	d="
M589.486938,375.069550 
	C589.269714,374.641479 589.310608,374.236481 589.351501,373.831512 
	C589.790405,374.072632 590.229248,374.313782 590.723999,374.803406 
	C590.434998,375.065491 590.090027,375.079071 589.486938,375.069550 
z"/>
<path fill="#19003C" opacity="1.000000" stroke="none" 
	d="
M730.308716,371.206146 
	C730.232666,371.145996 730.274658,370.729218 730.274658,370.729218 
	C730.274658,370.729218 730.630188,370.835938 730.580566,370.987274 
	C730.530884,371.138611 730.384827,371.266296 730.308716,371.206146 
z"/>
<path fill="#000000" opacity="1.000000" stroke="none" 
	d="
M1059.990234,135.000000 
	C1059.990601,111.501907 1060.124878,88.502441 1059.887207,65.506805 
	C1059.834839,60.445057 1061.372803,58.821407 1066.429810,58.974499 
	C1082.888306,59.472744 1099.389160,58.254345 1115.786255,60.944561 
	C1141.353149,65.139252 1161.188843,87.370377 1161.945557,113.258530 
	C1162.217651,122.567200 1162.026733,131.754883 1159.353149,140.956924 
	C1152.658203,163.999207 1132.525757,177.393692 1109.872437,179.967529 
	C1094.917725,181.666672 1079.913452,180.555206 1064.938232,180.973480 
	C1060.797974,181.089111 1059.907227,179.149139 1059.942505,175.496078 
	C1060.071289,162.165146 1059.991455,148.832199 1059.990234,135.000000 
z"/>
<path fill="#000001" opacity="1.000000" stroke="none" 
	d="
M1721.188477,317.403015 
	C1721.728271,314.099823 1724.016846,315.088470 1725.611572,315.095673 
	C1738.209961,315.152435 1750.848877,314.350159 1763.389771,315.941498 
	C1775.526855,317.481628 1787.135986,320.583130 1792.200439,333.491058 
	C1797.120361,346.030060 1796.509033,358.360138 1787.602539,369.093475 
	C1780.990845,377.061249 1771.408447,379.403046 1761.640625,379.837128 
	C1749.345215,380.383484 1737.008545,379.933990 1724.693970,380.151581 
	C1721.159546,380.214050 1721.125854,378.369385 1721.133057,375.796631 
	C1721.187134,356.487122 1721.166626,337.177429 1721.188477,317.403015 
z"/>
<path fill="#000000" opacity="1.000000" stroke="none" 
	d="
M1641.444214,97.244576 
	C1638.762085,112.228828 1628.748291,120.977203 1612.683716,122.956024 
	C1599.248169,124.610985 1585.768188,123.652222 1572.310059,123.947731 
	C1569.016724,124.020050 1567.985352,122.452957 1567.996094,119.370399 
	C1568.060913,100.733528 1568.033691,82.096313 1568.026978,63.459213 
	C1568.026123,61.108345 1568.356201,58.948441 1571.382935,59.016819 
	C1585.997925,59.346989 1600.710815,57.526432 1615.214600,60.038525 
	C1634.518677,63.382046 1644.153442,77.191505 1641.444214,97.244576 
z"/>
<path fill="#000001" opacity="1.000000" stroke="none" 
	d="
M91.615654,360.502197 
	C74.054482,336.862000 62.907940,310.760529 57.070759,282.326691 
	C56.906342,281.525787 56.998276,280.672272 56.899818,279.422424 
	C55.910656,272.684662 54.988338,266.368408 54.076317,260.050629 
	C53.774757,257.961639 55.237305,258.052765 56.598232,258.052582 
	C69.890648,258.050629 83.183197,258.081726 96.475327,258.020203 
	C98.449585,258.011078 98.926247,258.787384 99.081306,260.638123 
	C99.354858,263.903046 100.007149,267.136292 100.773804,270.684204 
	C102.882729,272.591278 103.770004,274.700897 104.219109,277.028992 
	C106.208313,287.340820 109.769501,297.130188 114.044090,306.684540 
	C114.852287,308.490997 115.893303,310.268524 114.840591,312.738617 
	C119.229057,324.036316 126.216202,333.428925 133.881851,342.141663 
	C142.511978,351.950623 152.021317,361.002838 163.626190,368.015594 
	C180.305893,379.664368 198.614777,386.353424 218.153198,390.002167 
	C219.605255,390.273346 221.036209,390.661499 222.491394,390.911224 
	C232.150162,392.568756 232.150040,392.561310 232.142563,402.236389 
	C232.134857,412.222931 232.013611,422.211548 232.194229,432.194733 
	C232.249634,435.257355 231.423767,436.260040 228.300888,436.049805 
	C210.312561,434.839111 192.981277,430.731049 176.159317,424.400238 
	C147.469803,413.603119 123.139572,396.376923 102.482361,373.875641 
	C98.685310,369.739624 95.391930,365.141174 91.615654,360.502197 
z"/>
<path fill="#000001" opacity="1.000000" stroke="none" 
	d="
M352.866852,271.509766 
	C348.604614,286.317474 343.500244,300.288544 334.138428,312.665955 
	C317.105469,334.986755 295.656921,350.190460 268.290405,356.385468 
	C264.309296,357.286743 260.232513,357.767090 256.254852,358.681030 
	C254.153885,359.163818 254.052002,358.123688 254.052551,356.633514 
	C254.057037,344.501129 254.082626,332.368591 254.030899,320.236420 
	C254.018814,317.401459 255.846863,317.370941 257.939972,316.933807 
	C269.009796,314.621887 279.042175,310.029510 287.917053,302.443512 
	C288.561493,300.439880 288.712402,298.733551 290.178131,297.295166 
	C299.518646,288.128815 306.686127,277.603943 309.832794,264.683777 
	C310.239899,263.012115 311.243042,261.724792 312.662781,260.267090 
	C313.669769,258.881744 314.423950,258.003632 316.055237,258.012421 
	C328.852112,258.081512 341.649536,258.050751 354.112274,258.050751 
	C354.448761,262.688568 353.233826,266.833191 352.866852,271.509766 
z"/>
<path fill="#000001" opacity="1.000000" stroke="none" 
	d="
M198.784149,302.559204 
	C207.834244,310.000244 217.816757,314.806641 228.966278,316.887848 
	C231.678131,317.394073 232.155197,318.502472 232.145950,320.785095 
	C232.098770,332.425232 232.084915,344.065796 232.145599,355.705811 
	C232.160538,358.571198 231.679352,358.973572 228.443909,358.420715 
	C215.613678,356.228210 203.229706,352.963562 191.710770,346.740936 
	C177.691498,339.167603 165.347794,329.600647 155.618683,316.859894 
	C154.517685,315.418060 153.411301,313.980347 152.098877,312.270782 
	C148.684662,310.666504 146.581451,308.301788 144.817581,305.314545 
	C139.711212,296.666504 135.555496,287.647156 133.232056,277.850616 
	C132.747208,275.806274 131.843628,273.665039 133.587646,271.309082 
	C133.415985,267.940582 133.400986,264.751099 132.477188,261.851135 
	C131.344589,258.295685 132.822510,257.985718 135.707382,258.008820 
	C146.955109,258.098907 158.204056,258.066589 169.452347,258.024750 
	C171.334534,258.017761 173.106171,257.925598 173.743790,260.662720 
	C176.310516,261.704376 176.631287,263.828186 177.171783,265.698883 
	C180.567688,277.452332 186.448425,287.738586 195.195663,296.321777 
	C196.920853,298.014618 198.134293,299.891876 198.784149,302.559204 
z"/>
<path fill="#000001" opacity="1.000000" stroke="none" 
	d="
M139.975128,204.328278 
	C145.306351,193.339233 151.199493,183.161972 159.079407,174.124969 
	C175.501236,155.291718 195.973404,143.526443 220.187790,138.058517 
	C223.959503,137.206818 229.027237,135.336594 231.404343,136.973801 
	C233.765610,138.600113 232.049545,144.110413 232.093903,147.912155 
	C232.192963,156.399277 232.073364,164.888855 232.156128,173.376328 
	C232.177444,175.562134 231.984497,177.451187 229.443420,177.891144 
	C213.104645,180.720001 200.112076,189.269653 189.032471,201.654083 
	C181.281570,210.709702 176.304916,220.790787 174.058868,232.141418 
	C173.462875,235.153320 172.274368,236.254578 169.158081,236.206192 
	C157.994629,236.032944 146.826569,236.057007 135.661499,236.152542 
	C132.616623,236.178604 131.900818,235.703476 132.478928,232.219910 
	C134.048538,222.761749 136.430634,213.598587 139.975128,204.328278 
z"/>
<path fill="#7E25F1" opacity="1.000000" stroke="none" 
	d="
M199.204971,302.531647 
	C185.698196,292.182281 177.190460,278.594177 174.015289,261.353699 
	C178.473389,259.056091 183.138184,260.205963 187.696976,260.051208 
	C193.786804,259.844513 199.888947,260.000854 206.448975,260.001862 
	C209.694626,259.749268 210.532349,261.938019 211.590622,263.786957 
	C214.863098,269.504425 218.962463,274.424774 224.699738,277.854004 
	C227.008270,279.233856 228.940903,279.989899 230.015244,276.477081 
	C230.872757,273.673218 233.159958,272.841858 235.867645,272.738220 
	C240.026520,272.579041 244.184967,272.663269 248.343948,272.659058 
	C252.066818,272.655273 255.247635,273.216553 256.414978,277.619171 
	C257.108551,280.234985 259.041565,279.462250 260.812378,278.498077 
	C267.146942,275.048920 271.800171,269.984680 275.191101,263.686249 
	C276.121979,261.957214 276.710236,259.879791 279.529419,259.836243 
	C290.571045,259.968597 301.279297,259.984375 312.450684,260.000427 
	C311.925873,270.699249 307.240662,279.850586 301.163055,288.466736 
	C297.601379,293.516113 293.377655,297.906189 288.391113,302.028564 
	C286.176300,300.690948 283.956421,301.011322 281.819824,301.010071 
	C256.227661,300.995300 230.635498,300.988861 205.043396,301.024170 
	C203.116928,301.026825 200.999008,300.471039 199.204971,302.531647 
z"/>
<path fill="#000001" opacity="1.000000" stroke="none" 
	d="
M279.869995,259.532715 
	C274.724365,271.361633 267.019897,280.037506 254.682571,283.879547 
	C254.423309,283.434235 254.152863,283.182007 254.140717,282.917969 
	C253.773575,274.926575 253.777527,274.926392 245.943588,274.926300 
	C244.615707,274.926270 243.287811,274.926270 241.959930,274.926270 
	C232.843170,274.926270 232.843170,274.926300 231.687775,283.971527 
	C220.026352,279.739685 212.035690,271.897400 207.132797,260.283691 
	C207.791946,256.353455 210.709457,258.280243 212.621582,258.183258 
	C215.122498,258.056366 216.177338,257.514893 216.053986,254.802460 
	C215.849823,250.314011 215.722412,245.787292 216.080856,241.318268 
	C216.409348,237.222763 215.186371,235.463287 210.943939,236.121384 
	C207.586823,236.642166 206.539948,235.745941 208.215134,232.204758 
	C213.119858,221.836563 220.759964,214.747925 231.730438,211.088364 
	C232.766357,219.997665 232.766357,219.997650 241.628891,219.997665 
	C242.461807,219.997665 243.294724,219.997696 244.127640,219.997696 
	C253.451401,219.997696 253.451401,219.997681 254.390640,211.350082 
	C265.288574,213.209106 277.015228,224.765335 279.303833,235.901215 
	C270.899628,236.531891 270.899658,236.531891 270.898590,245.455948 
	C270.898499,246.122284 270.891937,246.788681 270.899414,247.454926 
	C270.934906,250.618195 270.027191,254.232269 271.261932,256.825684 
	C272.671356,259.785980 276.720642,257.256927 279.422363,258.307373 
	C279.644714,258.393860 279.728851,258.835846 279.869995,259.532715 
z"/>
<path fill="#8125F0" opacity="1.000000" stroke="none" 
	d="
M133.375763,271.001190 
	C137.218658,285.597137 142.901733,299.170532 151.828766,311.664795 
	C141.738098,312.001160 131.585831,312.001862 121.433556,312.001434 
	C119.433846,312.001343 117.431190,311.975037 115.138367,312.955292 
	C107.610573,300.206635 102.870224,286.500732 101.028145,271.411499 
	C111.670349,270.990631 122.293968,270.995667 133.375763,271.001190 
z"/>
</svg>